<mxfile host="app.diagrams.net" modified="2022-07-23T13:28:44.681Z" agent="5.0 (Macintosh; Intel Mac OS X 10_15_7) AppleWebKit/537.36 (KHTML, like Gecko) Chrome/103.0.0.0 Safari/537.36" etag="-hnUCZolsDDRPU5iEwXH" version="20.2.0" type="github">
  <diagram id="C5RBs43oDa-KdzZeNtuy" name="Page-1">
    <mxGraphModel dx="983" dy="530" grid="1" gridSize="10" guides="1" tooltips="1" connect="1" arrows="1" fold="1" page="1" pageScale="1" pageWidth="827" pageHeight="1169" math="0" shadow="0">
      <root>
        <mxCell id="WIyWlLk6GJQsqaUBKTNV-0" />
        <mxCell id="WIyWlLk6GJQsqaUBKTNV-1" parent="WIyWlLk6GJQsqaUBKTNV-0" />
        <mxCell id="gly3M6yBo6mkt92Qv2Da-63" value="" style="rounded=0;orthogonalLoop=1;jettySize=auto;html=1;exitX=0.951;exitY=0.286;exitDx=0;exitDy=0;exitPerimeter=0;endArrow=classic;endFill=1;entryX=0.021;entryY=0.297;entryDx=0;entryDy=0;entryPerimeter=0;" edge="1" parent="WIyWlLk6GJQsqaUBKTNV-1">
          <mxGeometry relative="1" as="geometry">
            <mxPoint x="414.02" y="319.72000000000025" as="sourcePoint" />
            <mxPoint x="443.41999999999985" y="319.94000000000005" as="targetPoint" />
          </mxGeometry>
        </mxCell>
        <mxCell id="gly3M6yBo6mkt92Qv2Da-64" value="" style="rounded=0;orthogonalLoop=1;jettySize=auto;html=1;exitX=0.951;exitY=0.286;exitDx=0;exitDy=0;exitPerimeter=0;endArrow=classic;endFill=1;entryX=0.021;entryY=0.297;entryDx=0;entryDy=0;entryPerimeter=0;" edge="1" parent="WIyWlLk6GJQsqaUBKTNV-1">
          <mxGeometry relative="1" as="geometry">
            <mxPoint x="366.02" y="318.72000000000014" as="sourcePoint" />
            <mxPoint x="395.41999999999985" y="318.94000000000005" as="targetPoint" />
          </mxGeometry>
        </mxCell>
        <mxCell id="gly3M6yBo6mkt92Qv2Da-61" value="" style="rounded=0;orthogonalLoop=1;jettySize=auto;html=1;exitX=0.951;exitY=0.286;exitDx=0;exitDy=0;exitPerimeter=0;endArrow=classic;endFill=1;entryX=0.021;entryY=0.297;entryDx=0;entryDy=0;entryPerimeter=0;" edge="1" parent="WIyWlLk6GJQsqaUBKTNV-1">
          <mxGeometry relative="1" as="geometry">
            <mxPoint x="318.02" y="319.72000000000014" as="sourcePoint" />
            <mxPoint x="347.41999999999985" y="319.94000000000005" as="targetPoint" />
          </mxGeometry>
        </mxCell>
        <mxCell id="gly3M6yBo6mkt92Qv2Da-28" value="" style="rounded=0;orthogonalLoop=1;jettySize=auto;html=1;exitX=0.029;exitY=0.702;exitDx=0;exitDy=0;exitPerimeter=0;entryX=1.001;entryY=0.695;entryDx=0;entryDy=0;entryPerimeter=0;" edge="1" parent="WIyWlLk6GJQsqaUBKTNV-1" target="gly3M6yBo6mkt92Qv2Da-11">
          <mxGeometry relative="1" as="geometry">
            <mxPoint x="301.58000000000004" y="284.04" as="sourcePoint" />
            <mxPoint x="280" y="284" as="targetPoint" />
          </mxGeometry>
        </mxCell>
        <mxCell id="gly3M6yBo6mkt92Qv2Da-27" value="" style="rounded=0;orthogonalLoop=1;jettySize=auto;html=1;exitX=0.951;exitY=0.286;exitDx=0;exitDy=0;exitPerimeter=0;endArrow=classic;endFill=1;entryX=0.021;entryY=0.297;entryDx=0;entryDy=0;entryPerimeter=0;" edge="1" parent="WIyWlLk6GJQsqaUBKTNV-1" source="gly3M6yBo6mkt92Qv2Da-11" target="gly3M6yBo6mkt92Qv2Da-12">
          <mxGeometry relative="1" as="geometry">
            <mxPoint x="280" y="276" as="sourcePoint" />
            <mxPoint x="300" y="276" as="targetPoint" />
          </mxGeometry>
        </mxCell>
        <mxCell id="SsMaSS-ixUV3Psy7raRa-2" value="" style="edgeStyle=orthogonalEdgeStyle;rounded=0;orthogonalLoop=1;jettySize=auto;html=1;" parent="WIyWlLk6GJQsqaUBKTNV-1" source="WIyWlLk6GJQsqaUBKTNV-3" target="SsMaSS-ixUV3Psy7raRa-0" edge="1">
          <mxGeometry relative="1" as="geometry" />
        </mxCell>
        <mxCell id="WIyWlLk6GJQsqaUBKTNV-3" value="序列信学习" style="rounded=1;whiteSpace=wrap;html=1;fontSize=12;glass=0;strokeWidth=1;shadow=0;fillColor=#dae8fc;strokeColor=#6c8ebf;" parent="WIyWlLk6GJQsqaUBKTNV-1" vertex="1">
          <mxGeometry x="110" y="410" width="120" height="40" as="geometry" />
        </mxCell>
        <mxCell id="SsMaSS-ixUV3Psy7raRa-3" value="" style="edgeStyle=orthogonalEdgeStyle;rounded=0;orthogonalLoop=1;jettySize=auto;html=1;" parent="WIyWlLk6GJQsqaUBKTNV-1" source="SsMaSS-ixUV3Psy7raRa-0" target="SsMaSS-ixUV3Psy7raRa-1" edge="1">
          <mxGeometry relative="1" as="geometry" />
        </mxCell>
        <mxCell id="SsMaSS-ixUV3Psy7raRa-0" value="CRF层训练概率转移矩阵" style="rounded=1;whiteSpace=wrap;html=1;fontSize=12;glass=0;strokeWidth=1;shadow=0;fillColor=#dae8fc;strokeColor=#6c8ebf;" parent="WIyWlLk6GJQsqaUBKTNV-1" vertex="1">
          <mxGeometry x="290" y="410" width="120" height="40" as="geometry" />
        </mxCell>
        <mxCell id="SsMaSS-ixUV3Psy7raRa-1" value="通过Verterbi算法找最优解" style="rounded=1;whiteSpace=wrap;html=1;fontSize=12;glass=0;strokeWidth=1;shadow=0;fillColor=#dae8fc;strokeColor=#6c8ebf;" parent="WIyWlLk6GJQsqaUBKTNV-1" vertex="1">
          <mxGeometry x="470" y="410" width="120" height="40" as="geometry" />
        </mxCell>
        <mxCell id="SsMaSS-ixUV3Psy7raRa-10" value="" style="edgeStyle=orthogonalEdgeStyle;rounded=0;orthogonalLoop=1;jettySize=auto;html=1;" parent="WIyWlLk6GJQsqaUBKTNV-1" source="SsMaSS-ixUV3Psy7raRa-4" edge="1">
          <mxGeometry relative="1" as="geometry">
            <mxPoint x="380" y="654" as="targetPoint" />
            <Array as="points">
              <mxPoint x="430" y="634" />
              <mxPoint x="380" y="634" />
            </Array>
          </mxGeometry>
        </mxCell>
        <mxCell id="SsMaSS-ixUV3Psy7raRa-4" value="随机场（RF）" style="rounded=1;whiteSpace=wrap;html=1;fontSize=12;glass=0;strokeWidth=1;shadow=0;fillColor=#dae8fc;strokeColor=#6c8ebf;" parent="WIyWlLk6GJQsqaUBKTNV-1" vertex="1">
          <mxGeometry x="370" y="574" width="120" height="40" as="geometry" />
        </mxCell>
        <mxCell id="SsMaSS-ixUV3Psy7raRa-20" value="" style="edgeStyle=none;rounded=0;orthogonalLoop=1;jettySize=auto;html=1;endFill=1;dashed=1;" parent="WIyWlLk6GJQsqaUBKTNV-1" source="SsMaSS-ixUV3Psy7raRa-5" target="SsMaSS-ixUV3Psy7raRa-18" edge="1">
          <mxGeometry relative="1" as="geometry">
            <Array as="points">
              <mxPoint x="300" y="674" />
            </Array>
          </mxGeometry>
        </mxCell>
        <mxCell id="SsMaSS-ixUV3Psy7raRa-5" value="马尔可夫随机场（MRF）" style="rounded=1;whiteSpace=wrap;html=1;fontSize=12;glass=0;strokeWidth=1;shadow=0;fillColor=#dae8fc;strokeColor=#6c8ebf;" parent="WIyWlLk6GJQsqaUBKTNV-1" vertex="1">
          <mxGeometry x="150" y="654" width="120" height="40" as="geometry" />
        </mxCell>
        <mxCell id="SsMaSS-ixUV3Psy7raRa-6" value="&lt;span style=&quot;text-align: left;&quot;&gt;吉布斯随机场 (MGRF)&lt;/span&gt;" style="rounded=1;whiteSpace=wrap;html=1;fontSize=12;glass=0;strokeWidth=1;shadow=0;fillColor=#dae8fc;strokeColor=#6c8ebf;" parent="WIyWlLk6GJQsqaUBKTNV-1" vertex="1">
          <mxGeometry x="480" y="654" width="120" height="40" as="geometry" />
        </mxCell>
        <mxCell id="SsMaSS-ixUV3Psy7raRa-9" value="&lt;span style=&quot;text-align: left;&quot;&gt;高斯随机场（GRF）&lt;/span&gt;" style="rounded=1;whiteSpace=wrap;html=1;fontSize=12;glass=0;strokeWidth=1;shadow=0;fillColor=#dae8fc;strokeColor=#6c8ebf;" parent="WIyWlLk6GJQsqaUBKTNV-1" vertex="1">
          <mxGeometry x="640" y="654" width="120" height="40" as="geometry" />
        </mxCell>
        <mxCell id="SsMaSS-ixUV3Psy7raRa-15" value="" style="edgeStyle=orthogonalEdgeStyle;rounded=0;orthogonalLoop=1;jettySize=auto;html=1;entryX=0.5;entryY=0;entryDx=0;entryDy=0;" parent="WIyWlLk6GJQsqaUBKTNV-1" target="SsMaSS-ixUV3Psy7raRa-5" edge="1">
          <mxGeometry relative="1" as="geometry">
            <mxPoint x="380" y="634" as="sourcePoint" />
            <mxPoint x="390.01694915254234" y="664" as="targetPoint" />
            <Array as="points">
              <mxPoint x="210" y="634" />
            </Array>
          </mxGeometry>
        </mxCell>
        <mxCell id="SsMaSS-ixUV3Psy7raRa-16" value="" style="edgeStyle=orthogonalEdgeStyle;rounded=0;orthogonalLoop=1;jettySize=auto;html=1;entryX=0.5;entryY=0;entryDx=0;entryDy=0;" parent="WIyWlLk6GJQsqaUBKTNV-1" edge="1">
          <mxGeometry relative="1" as="geometry">
            <mxPoint x="430" y="634" as="sourcePoint" />
            <mxPoint x="540" y="654" as="targetPoint" />
            <Array as="points">
              <mxPoint x="540" y="634" />
            </Array>
          </mxGeometry>
        </mxCell>
        <mxCell id="SsMaSS-ixUV3Psy7raRa-17" value="" style="edgeStyle=orthogonalEdgeStyle;rounded=0;orthogonalLoop=1;jettySize=auto;html=1;entryX=0.5;entryY=0;entryDx=0;entryDy=0;" parent="WIyWlLk6GJQsqaUBKTNV-1" edge="1">
          <mxGeometry relative="1" as="geometry">
            <mxPoint x="540" y="634" as="sourcePoint" />
            <mxPoint x="693.97" y="654" as="targetPoint" />
            <Array as="points">
              <mxPoint x="693.97" y="634" />
            </Array>
          </mxGeometry>
        </mxCell>
        <mxCell id="SsMaSS-ixUV3Psy7raRa-18" value="&lt;span style=&quot;text-align: left;&quot;&gt;条件随机场 (CRF)&lt;/span&gt;" style="rounded=1;whiteSpace=wrap;html=1;fontSize=12;glass=0;strokeWidth=1;shadow=0;fillColor=#f8cecc;strokeColor=#b85450;dashed=1;" parent="WIyWlLk6GJQsqaUBKTNV-1" vertex="1">
          <mxGeometry x="323" y="654" width="120" height="40" as="geometry" />
        </mxCell>
        <mxCell id="gly3M6yBo6mkt92Qv2Da-1" value="" style="shape=image;verticalLabelPosition=bottom;labelBackgroundColor=default;verticalAlign=top;aspect=fixed;imageAspect=0;image=data:image/png,iVBORw0KGgoAAAANSUhEUgAAAfEAAACACAYAAAAbO1CtAAABR2lDQ1BJQ0MgUHJvZmlsZQAAKJFjYGASSSwoyGFhYGDIzSspCnJ3UoiIjFJgf8bAziDOwMcgy2CQmFxc4BgQ4ANUwgCjUcG3awyMIPqyLsis34lWN5L6Q5c4psW0v1txzg5TPQrgSkktTgbSf4A4LbmgqISBgTEFyFYuLykAsTuAbJEioKOA7DkgdjqEvQHEToKwj4DVhAQ5A9k3gGyB5IxEoBmML4BsnSQk8XQkNtReEOBxcfXxUQg1MjE08SDgXNJBSWpFCYh2zi+oLMpMzyhRcASGUqqCZ16yno6CkYGREQMDKMwhqj8HgcOSUWwfQix/CQODxTcGBuaJCLGkKQwM29sYGCRuIcRU5jEw8LcwMGw7VJBYlAh3AOM3luI0YyMIm8eegYH17v//nzUYGNgnMjD8nfj//+/F////XQw0/zYDw4FKAP4FYVSJy6peAAAAVmVYSWZNTQAqAAAACAABh2kABAAAAAEAAAAaAAAAAAADkoYABwAAABIAAABEoAIABAAAAAEAAAHxoAMABAAAAAEAAACAAAAAAEFTQ0lJAAAAU2NyZWVuc2hvdA4skPAAAAHWaVRYdFhNTDpjb20uYWRvYmUueG1wAAAAAAA8eDp4bXBtZXRhIHhtbG5zOng9ImFkb2JlOm5zOm1ldGEvIiB4OnhtcHRrPSJYTVAgQ29yZSA2LjAuMCI+CiAgIDxyZGY6UkRGIHhtbG5zOnJkZj0iaHR0cDovL3d3dy53My5vcmcvMTk5OS8wMi8yMi1yZGYtc3ludGF4LW5zIyI+CiAgICAgIDxyZGY6RGVzY3JpcHRpb24gcmRmOmFib3V0PSIiCiAgICAgICAgICAgIHhtbG5zOmV4aWY9Imh0dHA6Ly9ucy5hZG9iZS5jb20vZXhpZi8xLjAvIj4KICAgICAgICAgPGV4aWY6UGl4ZWxZRGltZW5zaW9uPjEyODwvZXhpZjpQaXhlbFlEaW1lbnNpb24+CiAgICAgICAgIDxleGlmOlBpeGVsWERpbWVuc2lvbj40OTc8L2V4aWY6UGl4ZWxYRGltZW5zaW9uPgogICAgICAgICA8ZXhpZjpVc2VyQ29tbWVudD5TY3JlZW5zaG90PC9leGlmOlVzZXJDb21tZW50PgogICAgICA8L3JkZjpEZXNjcmlwdGlvbj4KICAgPC9yZGY6UkRGPgo8L3g6eG1wbWV0YT4KCRmvaAAAQABJREFUeAHsvQd8lseV73/Uu4REFSBAQjTTmzFgY7BxL0lspzhOsdOdZNOzN5vk7t1N2+T+d5PsJptkN9lNshsnduy494ILzWDTTK8SXYBQ7/V+f2feR3rBYEgMxvv/MNLzPn3mnJnT5syZeRK6SXY+na+B8zVwvgbO18D5GjhfA//jaiDxfxzE5wE+XwPna+B8DZyvgfM1cL4GvAbOK/HzhHC+Bs7XwPkaOF8D52vgf2gNJP8Phfv/d2B328lGNRLeBK4ny/NNZPlnvJpgMdgjMKK95xE7SeCZ4x57fRHHvPj622+LKydqp7cz3CeC93Qr8u2H1zHYHAPeMXditHZybjvdGjgzzx0H2ykzPQaxUz791j/w5+IjCN/uOJ2oFt8IzzODT4/sPFHxx107r8SPq5BzdXpysSKikMOkMwba6TpPzgwxvdn6SOiG4AWKNqHQFTuR8hYqiZwnJlj8Y1yN9Lpe0OnbJAn24+E5WXu8EaO/TdDpaRjBGjZh+MapmydP/dQb53Fm7kZQhJruDDTTTXtEN3SspCbTYaxJuhNOzm16/K1NMaCiQh12fvyyTiJkogei/XHvRZfP6V6wCq54HjmeP6J7ek7byfDj1jlNgiuCNR6H+OPjAdQ7ZwYfUWiiE+3xZbz+/LwSf32dvM2uSPNFClwk0uHwJcQITHGJCVKIPQ0eEZn2un6OEyA4O7AXFomCCXjFHq7H40Ds5MEEBKw/c47BPnHxso+Tj2PTiNHD/tj2iEPuxBmew6tqlV66irRcN9ZUoKdeESYgI6o6hwCftGhh0u0KGyidF9jpGj9J3OzGUEzAUNTFqLVOmtlbekOQB37uKRb6DxwTruhMKeF1LZAUbrytflW7Uj8y9LwFOD8OvxgeAS/9JsWefVsh4hi4JOrhB+HTm0I8uHil99q5OjqvxM9VzZ+i3Ih5ReSd+uuUXZZoKZJTvKv7UujdiKXOri5LlpDyFInb6Dx2+RzsBKPY2qHkROzcJeg51nVBmsJpZzs4QYlJUuCaLME1CQFhoO2tTceXKiyinluitQN4N/AmAm83OjApKVHokNh3ATMKI9F1Sbjqt96mP90YJM1NHZaenmydNI5XfYqwDccCW0JKhpWuSdwqRZi99W3jxR/zI9oS3HLwOE0BlJR3Bydd/KQkJ1oXN1PhDzl9kmJAvx1gD4hAN8DVARMkJyVT1yKsQPe6HrG1cJIHhEtv4xRkj4xwRJK1th0LbaLagEc6O+CR5A5LpDHcq9PTJueuVY6FNMHNW/Gz6KWtPcE6gDkF+MUPSdhPCcIDJB2nc6zJzyvxtwVLQAzdbTCo3MoIVDi2G8IQYSFTrb6h07Zv3WPbtu+1qsqjKIsuGL/dsnOTbNy4cTZx4gWWmppkadKIJO6iUiTSQgrqMDo7+/teURNwgBeslWIbW9pty5ZdtnXrNquuqgVPwZloOdkZNnPGBJs2frR1gbcgVz9DWwLPJCToivKKFCanb0FS/Us5qGcqCHQuYVpd12379u639etfs4MHKywjLZ07CZaZnWPjxo6zGbOKLSU1tAU3PCWRkdoEcRDySYwwjJ44s3tBHEHdTU2GulPpgrQ3bd162LZu22GHDh1E8HZaB3TYv39fGzN2tI0eV2JZman+sMSz8Bct6TjQVC+N+UNn8Uct3y2riZLFI+IVV+Dsm9rabMOWrbZp8y6rqWm0to42Hku0/LwcmzB+nI0qLba8nHRMlhhNgUFCt2DvJC+1w7lJahNPNEgHnoSGBrOysr22DVwOVRyxtlaGCKC9/II+NnTYULt43kRLSxXHhNqP2re3rdWy4pPAK2cLK/E3XQeHPtGti6BG1Dpeq50JtnNHna1ZvdoOH6o4BoyJkyfbhAvGWEEBkk0PA7KcD06T8Ln/xfg9YBqro2NyOZMnwRuFBKbs3rJUww0NbVa+e59t2bbNjlZWWQftIS7Iy82w0jGjbDx4ZGSmWyroR8aW43EmwTuNvJCRsvfOp3NaA1107aTEaYo2RE1nYqpbspu27rUli2GEw9WWk5Nnw0aMsGwEU1p6mrV2tNuRwxV29PBha6irswH9+9lFMybZxPFDXREmJ0mId3rvSWI3sP3Zx7IL0Sr27u4SCybSw+i2DSiK55eustq6BkvGlTC8ZKQV5OdZIgKpo7XdaquOWMXBfeBSYQP7D7SFl11iI0cOtjR8oWlwuAurWG9QCunspF4GFkNIvmhTN0kQiEl3wNAvvLjSDh3B84HiHjhosA0ZOtDa2/xJO3r0qB04cMAamg5aXl6mzbzwIpsycTg4JFgq9ZCKKZOotkZxdKYgxNifrXZJpBWC70NiJ8naMQfbJHBJ67fttRUrV1pDbSM3c6ywcKj1g37Uq5AdWFtdZRUV0FblIetTkGnTpl9gF00d794ed46Cj5RqgD7g7hmftR9aQAq8A6XbDS4YQF3gUnaw2p556iWrrm+wlPRMG1I03LKycy0pGSWP0dQIX1QeqbDmhkZ6VF02Z9ZMmzGx2FJTgtZITMTcBd+z1QYnro5giLa1o6Cp7y62st377dmn18DPzZaelWlDi4utT34OPVU922FHq2ps34H9Vt9YZ5kpXXbZRZNt9swJrvnEG8m0boLcQxx1qSdP65yt1CmucGNKJciXQ+11pRniyHbtqbFFL6+x3RUHLDk91foN6G99+/XH05NubRhanTy0f89eqwGf/NQMmzVtks2YORIPRAK8Tna0WUdym3UktLvsSIZjgsl4drCRfBRHSF61aDgGupZX8MDhOlvy4nIrL6uwpJRUGzp0mBX06+M4qUNSW1tjFRjxlUcO26CBA2zGlPF24cxRbvCnIrOgTs/XG+hNgC75eTrpvBI/nVo6288g2NXLkIBs7ki0qsYOe/rpF+zggcP0tKfa4KFFWK458GaStbTyFIyflIxiQAm2t3ZbfW297d29xzZtXGt987PsnTddY/l9MiwZwRUIiud7yEpke+ZTZAm66xzi64TaKw/X21NPv2QHjtTayDHjrGgEQjYr21IQTon41broDcm8SEEwdaEs6xC6u3eV2eYNG6z/wL72juuvsML8DNQPijRmpasvJQxE3seqD109HrfoCV2PIAxP9Z5FIi8wjN7QvWBzs+ekuqbeHn/sGduzb5+Vjptsw4snoNxyrZ2mkKs2JTkYFu0dHZZEGzU21lvFoSNWvrPM0tLS7MrLp9mwQbmWRk83ubsVKOkpoWgkcKPxZ4r0dCIsdEOmhP6UggrVcTj3i3E/IQ9hELDpCOaDNaM47n/wZdu2dYtNnjrdBg8ZaH369IX2MJZSUyCrIDI7eU702NzSZHt2l+E5WU+vNssuXzDPhg7ph+2hVpMAV91JYB1vWMXDdiJBdKxPJWqlOBT8MGpNx9uVeALqKtlqWzrtwceftb17KmzM6HE2fORIN3KTUc6dEsZsapJEaKaTBmxqaLIDe/bbxtfWWQFG8JUL56Lw86FB4MA4PBGEx8NyJs5VK6HHZ9bS1mlN1PNTTy6y7Tt2WGnpdBs2fCzKIpehJfGGSqQNwSEBXpELt6q6zg7u3WOb162yvvTOr3/HVTaoIBsjUYq8hTZD6SdI8fVyQnxLKMconQznkz2v97w9uuFwGbaU1SH65a8eefXkU4uhkzIrHT/Jho8aZVk5WS6juuiVS+nLO5gsJOD5tiboqmw/3sXNblC9+6arbWCfbIxEbifLOyKDRJye4vn7yV/wE18Px7/u1etcDh5QQFM7Rl9zhz23aLlt3LjFxo4db8UlYywnLw/+Fq/SdsDuBr1kL8q6uakBHHbjddhqWelJdt0Nl1ohckvyKkTOqJb1RijteBhOdX5Olbga+XjhdCqAT3b/TOZ1sjLe8utxbRo6RygxhE0LgGwpP2RPPrPYsjLybDY9ufSMdMaPIAYErOST0RPxRB4aX0riXhvKQ73BjtYWW/XKq3b4yF67/ppLbeKY4TAPBgLu9xQYTq+rXfR3JpKEa5SbBHFQfAnWDC579h61Bx982vLyB9jEqVOsoG+uj0+24lJPSUr1npLEgtxxPq4cCz7qAtb6+npbu36d7dq+xW577402fFA/y8RUl+fTcaAs7VWm9iH1HkVXxEBhi/ANFR9djZ7zN71yyZNHXf2pfnl/O+3xGAo8EZgvnrfA0nNygDfJEvEodHZ20sNox5iCbV2wURr4JEiYsrW1Ndlr6zfjUtxn82ZPZbhghKW60ojxB23Rk7xdes5ed6C61p9SUOI6OrH6i2pC8LXwSCeGxa6Karvvjw/T4x5u06dNtzyGMKSo1RtMwPUso0q0ofoXfkoaJ0+gt1pfW21bNm623WVltgAFOHVyMTCEOIxkr6eYidiDQ1TDwi8OR89VP9H9cOHYs56Het5Ue0gZy2jai5v5/keft/TsPJsxfSZGax/oiTKo9y4pC8keGlG4KF+1onASHB30BteuXm/lu7bZwisvxq07zDLTUZA9T74e2pPB5ln/GT+qBUHRAXwaKt61rw66etqyGYKZNHmq5RX0o95RijSehjW0JaAoaB5PgjFBPdUODBnwXL1uo23eshE+X2gzxxdZe2ODZWem0Y7QJm/IzOpNEUX0XjkZ7bwRvp4LcCGsgCbN2qjj8kON9rv7HsMYzLOZ06dBV9nADf2AiIwPwQ/K4E6bULxkkc46uzoYLmhFCe6wrZs22/xLLraZ0JVGb2R8KQ5DdPn6FonH4VTHcdjosCcFTtKQpTw6nYC0/2iT3Xf/U8jTDJs8abINLhzgbaHXcCo6P0c6LcpKKl1GfFtTq23cgLzatcUuv2w23rfRlo1cFqbRQFZP0X/Gwekq8aS/I/0Z+Z7WoxJox6eoAqLr0TPHX4/uv9H+L3nn+PzeLsaBCKEDYhJj79xzxB59YpENLiphjHgWijwLpQIzsynCVlwgunYC51wjU2KKDvUAEQDJKRmMnRUR1NNtr65eYzl9cuihZGEBQw4wvnMRGcAe/he7QNWIvaLt+Jp6/XnPkxKYIlX1ePx95Y3bee8he+Dx52zIsFKbPvMirNkshHCLu9NSklF4CAGJ/WTeF6E6eytTVyi41tIz6IkX4iLNsOXLXrYBAwfS88ilLuRmo0ynr8DkQTS4eDkWUAFCvfbihVDXNcEM4wYxF4wIKQAJFm5y6BhxbLZ91z577NFnrWjIaJs9Z55lZOXiRifHRLwmXbgHFYyEMu9oVy/IW9JrQe2lLRENVzh4IIK7Hff1qxg0/elp5SmDGNaUK6vBy/fiBYLn4QBEP34NTIFNsAta/Wgvhe7XOAm5Ri8Zwh43IU8crmq0P9z9sA0dMZQe+ES8NJnIYcaNqbZUxu6R+05TakcFG6nH4XAghGVcpqdmIdQGY4Sl2+rVq1CgidYfN6l67sha2lL1H4NLxXM91kQBN693rsfteSQkx010FOhAucT/eV5c6aTOyvYfsocee8Hy+w+xWXPnWq4MKjKSwnM/KDkGSJSfNv1BY1Imyh/lUjhkkKWmZ9nKV1+1jJxsGzyogGcEvShYNCB1EweoQ9mbq548dtMDMjP0jsrTs/EpwKJnlHMrQwJ7Dh6xBx99wQoGFNqFszHUM7Ood3mvpByBgyykwB0WjCjlnSQccUdLB3YnZVgf+CMrN9uWLVlmGRm5NmzogACB6I72U7s4XXlFA7POlXrqXQdcjM5juIdHwAPa0S3HiDz010OnGFPqa1ZUN9lv7nnWBpSMtJmzZ1heVobLGQWoahpfZIzIuEpGqQk30ZjwEm8kpSQHPk/LslVr11l6WrYNwWOVjNb0eowsGAH156QIV70j3nL+it+HzGRoN8EGh4nP+eO9j2HgFtlFs+dY374M9XkzypiggxWTvbom2RvhofF7wZmUjMu9qNAysrNsCfIqh33hgAI9rBrmmUCLodTT//U6P43Hz6gSb2mRMANgJ5ze0nXe3i6XsRoW1NlcIMU9F/+OntPW3NxMBfB3kuei61Ji6nU40morvY8ii/LxPRWpcvVcVL6OxeDnJDmhSYHTwwC/o9Utds99T+DmG2nTpk1DYKYCm+pSdYVwAsyIrUDUk/AXSel66H0gquiuDhs2gN5ss61ft85GjGAcPSOTJ2AeynJhKUUOYTtpKXPPsHfvda48/U4466aukDNkQQ66gVBJkGAhUd3wSZK1oZAOVDXYA488a4OGDrfJk6ej5OQSC4I0We43GCcpNhas6Vrehl4QP2TkOAGTXIoF/eS6TbIXX1pso8eOxFDpJMqYesEbIaEcMaheP60kQKmG5pomW//Sams92oKh08dfVbmd0KjGKCVFKytr7LEnllifvAE2dcZMDIpUlDGuROjKMCaEg+pdWSYijCSEE4SXvx96IqDt5wpMSmEMcO2aLTagcAjBMCmWoeci2S+5prpV0byj93wTZDpWir/GqZ5rami2lxYttpaGDktLzsI1qbHgLpO3Q+PCLTzT2Nhu9z3wHAJqoE1FgWdlpbvSlZBVZUjA6h3RgwDQZVd44KK6SoLwxCPqnecV5LuCf/XV1YwTFhEsxrgtf94P5z1y6IEzGBsRDQV4Jb/1TMCRI5XJ1ga8zzzxLCSVYFmpubQvvWZczf622oV3jta12n0PPm8FAwfj2ZmOwE+jDSidcr0tgM8bQ/l7IbEKBToFSzr3iIlop/yCAsdj5YoVuLGHUW94uwDKe7tUtPjCz8Qnahi1TwzW1+15IigmHgF+dx+LRoBaTezGszLguAvar4Yvn37uRdzN+TYdukqHLlSHDh+wJVKm90ApT8dyvyWphtlLZSTgESJnH7YpwAuRDuzLFi8hNmMkAVdqWwx6KUGeV54OL0cOgHYCTVuUHC8u+HXUE/XegVfvpUXLrLnOLJvhL3UCuojO9ryAqYtNeNz7yPOWkpVjcy66kLF68bZqjSQ64k+0E206F0ShJcjL64ZRfDofBRiEGntesmSxFQ8fZvkEjqmp/GHld6IkeJUc7ri92srbCyOWocdnn3zWGqrr8VLkeFkJ1I36M8JBnSdGZuy3d91juXkFNuPC2S6vNDzmcgkAgkdAsAOQ05EKFWgg4P/gKXzhl77wRwLTVlbAH0OKhhALkNYT0R6TtuHl0/z1Mk7j2TOqxO+99177r//6L5s7Zy4urthcFRBVUMPf//3f2w9/+EO7+OKL6R3C/LSSlGuorABpdKz9oUOH7L3vfa+NxMorQmAoxd+PzpXHmjVrfNtVtst2ML60c+dO3+/YucN6Nq7v2rULizCZoCN6QyRnGHHaW50iAqRcjSFLiT/6+MsYGIk2+6KZCBW5xXiIHp+o1BsTphT+OtN/lHRNRruUt4Sf0z7P5uOeqySismzXHhs9ehTj4+oxaYycESDqLIwFYhHzfkRgyjYI8bB3QUye2qtzVgszPHzfw9ZY02wZKdmWQQ8twd37BGqRT0Nbgj37wgprRgjIok2FMQW/o8JzScAVBJaXpAYNMlHlcuwc6XuOAURutX4o8qNV1bazbLtNnjAO4d6FSxpRgcAUXD3VoddPlKK69uz54b0mlPhTDzxt61Ztsg1rtuIubrRuejlSDMkZadaC3/bZRSuturrRFlx2GZ4BAg0VOKQetlewMlP5tAkYeZvonGNaw3GJXIG6KiGoIJ+Kg1W2s3y3XTBmmGV5RmQDfA664JTwIQUlpwM/DT+6H+ESe7aNbsTvf3uv7di8mziC7T72q0H8NILukjCQaA57cfk6O1xRZ5ddNt8ycbcmcF8Zu6ry/IEaWJxyqPugkgU1f5yrObS54QvP5hf0tcYGuUG32zgidDV1S4I7lhVHJIoQvXhScdpIPXjJ+6A31H7su4jruOtXD9qOTQdt7SubrbaSIRcKTVHwH0Je7sznX1phtY2ddtHcObRTOoFQkh+Cl8wFoGMUjrtVt6IRlcG9QFtqOF0CXmDu37/AYzDWrFlv0wlMkkGQFINHnNKDu7L0P+2lRtXa8Rs0wXsJXUnWVNdmjz74lNVX1aNcieVIhJ4wOp0WqDsFNy9eusb2Hzxqc+fNZzYJBinligc99ZQV2sNpSRjyjNMYLhO5f1W+roiv+uTmE2jVYFs277RJE0fCG0AvJQ48QekKZ+XeW4aX5YqOaxHO0LJXdGfgrT/d/YhtWLvT1sIj1VWVrvhS8QDIk9ZCe63ZsNm2795r86+4AlyhNhpcciWUEtU5par+VbrvdcQzHDuG7NVKYqrcvD6MrTfYTuiqpHi4ZWZgFPg9/fyZiXqhGOvEvfnwfS9Y+Y6D9tqqzVZdUaP4YTwXjNenEUDMY0tXMMPkcKXNvGguQ355bgf2wqxaEy3pX7VO0rFwEQ6So7oDYUdtkp2bw9h6i20Bj7GjR2BcxzoxsTyUxemmUHOnflqxKW86NTA3Qgz38ssv455LxZrRNCksfJDUXM1f/OIX9tRTT9n48ePtM5/5jP3rv/6rDR482BV5qLAE+9GPf8T0kBr71re+5fBI2R4m8rq5pTlUHIy3aNEi+9WvfmW///3vsXhRSFhMKuPHP/6xrcCqLiws9Hd1LT6pDF0rKyuzr3/96/apT32qx4jQdd0/F0n8o/7cvn0HbPfu3bbg8iupP1zoMISC0tTrOxY0JykntGPgdYEl4grUqx5BRlqGTZg0wxY98yQGzX4bO2IQhIagwl0qguvJV6iLgXlVr0v40jE7JnntyIJtSLCKXUdt1/r9tjJzNUTf3yZMHm/9h/W33EH5tv/AUaZkVODqvJjAD4SX4CcnbSL2UyeeCf9B4CPsOwn6m8y0lEcfvJdpXVV2sGyP1WHgATEJTJStb8e2ud/WDV32euFYPSSUWGcjwU5N1EN3llUdabGXnn/Flixto0eQbQNKh1rfIcOsvHyfzZlzGbQsBQ67qxsZS4G5yI9K9KL14ylAFZ3JBSxlqV5xM+NmkydNsmeeecLKyHtTxX6iw2sRjjzhPeHQ3l5jylo59+SrdgH2HhAkMAne6k61dMM13pJqlfV1tvjISnslk6mGuDWHFBVZ0cRSe/XVVbbw8ncx9kt0ejtzmGLBQqK7nkTWAZPoSlzBsUsRDyWnptnYCyba048/geG8xTKxDg/t20VuoineU30LVN8rYx3EEo3ldKBGU/HcEv5JGK/pCXhEGph10YCCWLzBXlm+zPILc21gCXiMLrENm3bahZdchkcj1Q0HjZF71uQjaB1i6juk2BW/qCscxI59R7mJKNeJE6YSWPaole+ptDEj+lO9GKMtHYE3eFD2vcuHyCKRrIhDx8vSBeHDltSaZIfLK23Lqm22InMVQw793IAuKhlsuYNz7ShR8uvWbbNZl2IYugGsPrVD5NXh+ZGdG6ecyHhREr+6Itc9aW7hznUN/SQynWDWrFn2pz/eS+flgDUd3Wf1eJESNdALvN1RBH6M4Z2UeVvmSKiUYBC4Qar8gaSrlR5qNUZrV6o1MW695pWNtnLlOsvDazVq1Bjriyv/5VdfA4850HarG0WJtCHFeZ5OBgEtXTguhXLD7IkAgRv54Dhh/ARb9tzTdLbKbG9Ch5Vv3867J83opHeUn9dhZ4bVVYWAOnkNX6nYYqtWrrUCYmwGlgy1oaNKbfnKVTZ/4RWWk9uHITLxedAVol/N1qASe9rDq9BxjFCKYAsXxcdpeFAvGDfenn3ucdu4aZtdyowhyfNg1Efvndn9GVHiUtxXXnmlbWM+XUZGBm6RJYwr9LUffP8H9vQzT7sSVw997Nix9rGPfcy++MUv2ve//30bM2aMM74Y5eDBgz5F53j01GN3FyU3FL2s3rSSKkaCTD2EJqIdP/ShD9nXvvY1ZzrdV57xSefvfOc7/VKktKN9/HNvzTGwwfxinybGVjXdp3DwEOpM43PhT+A7iUTMF0eyEen0wBp7RuOwnkSIPK9paYVDRtrqVzfbge3ldvTAXqY4QdT0int6ii74KJPyNK6relVdic2RFiE7frtwp3cSUdtaj3HWmm31TbhzmVJVtu1ps/xuGzhyhNWxKEL//oMtv28/lI7coc4T7CWqYgixO3GKsNKemhFOuEg1RtsnN88mTJxK73iZFQ8exHhaBr0mjR8Ca8xHe8K2jMqK1Y96Z+ppQlIgpGA0ejYYCt2JRGYLQsb6krCcN27aav0HDLL8fgXc81J4oVfN9Rx5PQccHScvD7i1ZxeMKgwRhntS6K0kErVTXDwCxbrWpo8e5lOfNCchgfIBxuuflzwrd6VGcHNP7eJN4pkjYCQ062nLTtz84KKhU7WhXKGZORnM785nHvtm6ztgAFHoA8Az1GkkvHtw8NL4Ebz68UKEgCopwMJByJyd4i0yMnOtFGG+YcMumzV9DK5JiREpJD0X0NevlEx8HspfdR5d9tJE6PQwtYhRVxurCXAu92R3QgoGnOJ80+1llEhOn/4+7tjY2IILN5N8ec4LVKGiVUqK6iuc8Ss82LTrQYUDL9jgj1y7YOJ0e/ThZ2zf+JFWvm2T00HwTKiXKMUELLyeCJ04HeskShz7mCkKx3tjnSnWcLTektrTrbnabDdTJ/fuPGRJWUnWZ1hf68QAysjOt0HwutAWnhFwYdBAGXstgX+sEOhbvKrnfb0ElR8ZKxx3Q7RaKGbq9Im2ePFymzyulBgZqBwl7t48QR9VeNyrnr2Md0+qbziAakxCd6fSG8+2LAIJ6SRRyR3c8OE9gtnaWxNt566DGCHZVoTLmNJ5T7wI3LH611BNoH1lLoCVwr63iYRnLMHLquXs7EwbMKgQ/njNJo0rhl2Br+eh6OHefVRezxWhyklQ4lCFjOMErb8R6EN8rzUGmpqZIYIRt/a1rXjZsq2AoSbJvHY8cCl4ftzt4JmGwiNIXwdKDzKxOyh9dVyyiHEYWTrW1m/cYVOZS67I9bOZzogSl7v8K1/5it1xxx3uNh+A4NAY+A9/9EOmSj1tEyZMcDe7xtXkHlWP/ROf+IT98J9+yDzBGY6fKlFj2+phK0V7P+FHDaZntClFFSslr177I488Qo92n4/dKZ/4pMbUpp54FHkbf/8tP4YppHykxFvbk5miUGPz5l8I02lcSdDA0gQeSREqzsAj1BmeSIQAa5ijmJGZCc6ImNg4YAJCRDI+qhMXamSUQuTt8JLh9vKzZTaLXuDYkYOstYk4AyREZBkqglRvisl64wjkIgxwRL9yNTY3NtqLz6+wzmaxLEFmlJuWyuIHKImxuLoff26JzZ08jcUPECIMBXR3hukoHQTzVGGA9WPMSD3BNgLB2tpa8DrgFsWF7W1K/rKENTfUFXiMQWTAqYc0fMRoW//aBrv9/TdYejdPAbLLsgh8AfpGCXxUR+LnmqO1tvvgLhbRqbPc3FzmpI+zCVPGWd9Bfa0ed/3v7yEIbPhwH+dubWfmPlP5VDdHj1YiaNJRqIn0bDO8tEpcjQX9ENC8l4wBoBRaVgCqRej5U3YSbddJmw8ZMsSW79xswxYuYEx0CkBBBeQnI8JFgfBR0olf8DM1T9iEg47ZN9U221aGjrpam2xQ/3wbNXo4U3xGWN+iQdYGLf3LL++xiTOm+XSmdOoxGfduGl6yuuYGxsob3b2eRhuIN+rra6mLbOBIZuyfzPl3Txd4ay9YBJrmWysgaGRJqW1ctxaFNM+mThnl9HKMMImHnfc8CW4l7XVfxbA11ON+XLeeS13Ub65NmjTRBo8aagXDmYMPb//kV3fh3ZmHMdRNveMZgb9Fv11dLVZX34jXKQ2aS3E5oDZNS8tk7J9ePWOiDoY8VeDhMoTCtfcN2h+Kx2L1iqXMZ6Z31peeJS+oJfQeqLrx5BHv6qTpGuVKhjj/gIcbVxgwCgCEzO1QzYvWXo1nUmVyPwM6KSDSubC01FZu2GBjpkzxuAsZ055QYA24kTuQl5p+qZkaUl7VDCHl5hEfgPGnqYtyY+sVwU3TEi8E/zAeLqgyWXDkAnqxry5fbbfcUGxD507DyEX5w1NSqOwANODkx6Fk4NON3qSzblzQwmVt2WvWgVciKzeLaZWjbDj8MKJ4hCXQ8//J756zCcTtdOCyT8ET09baDH9gNFA3qv8+THPt7paR3OVzqnPgMdWZ5HIK9OdJ8FD/oj2NJyMyyC/BxlE/Dz1YbvOGjbSLL7nQ6zy88PpfMHv9Ra4E2cUCU6xBsXnnFuil1YfKSkeU4hkZS4DnYOvMSLUf//z3Nmv+PEtidokqt1sR8/A7FcA7DK9Ba4rbEezV1TWW2yeXzMNQi9SQeurCSUHF8SmROhkyZIRtW7eJzmmNlRYT5HYW07Gl/4UFqfedzdQCrR4mha4xaY1979mzx373u9+5q1gudyEshXvnnXfaH//4R9yKZa7EJcQjxmphmpRSK1a5DAHlp03KuhXXjhpdyXsq7PWursk9XwqjRMFqyi8+qSFkTChoTPn6eBsPHP9c/Dtn81gEKFPj8OFWcMgmcrlvgAX0BHptTZ099Kc/2oMP3Gsf+ODt9q53v9eOHD1iX/jsJ+2OT3zSrrjqGqaVCQ/NSIToyEu9TJccQh1K1pBG/wFEqOMq6sJiv2BSKbdD/fEAD4Wy/IBzEaa/38MbnpHfVi+85mi1LcP9BNUTDVtk4yeMsEJc6X3Y1rIwTWZOJpHo2Twvwg5MeuTwEXvogT/Zg3+4y264+T32qU9/hpWQauzzn/m0vfu977N33XQLsEsBophRMm0+D14qLWhngau2zyaOIgXX9u59NTZ6KD19QHMlHtBwGN/wJ/a8UEvOTLZJcy+A0Qb7Yg0yJDDBEa6JVlNeBe114U3o7+2japIw1EIb999/rz18/33A/X770IfvoH5b7fbb3kt73GnXXHd9jxJ3eiYvKXBX6PQq1aODBBlTzkfJZNuhymbrRyRuknpxMb9pVO2Okn78IA6r6Jw6kYcAb7rNvGyalRTRDngotHaApbZZPXxSVUcfiQoaUDiMepIwR0UCgxTB/ffdZ7//9a/sJmJO7vjYx4k5qLTPffpTdtPN77aboTN51lR4B4IsjbHJDobEVLTgU1xFN22bzvi6DKB9Bw/YINze6v24YOPBCA+9FNkkERa6p+d8r2fRlBnZKTZ17hQbPXIU9DTY67uTQI9OphXuP3jYM1EktmhX76peFdPx29/+1h78491Me7vKPv+FL9nBioP21S9+nvm6N9j73v8+8Cbg0OEJMkJv+rKmAobr2vLyiR/ASNMiKyMxRlNoJCkm8aBoz9dd9+cFcUhSEj7uHn/OcUNdsz2//AVLgFdGFpfYGPAZPoIAwIF9rOxIpa3Zsdn6FfZFn8aWHKU9aqqYivnA/fboA/fZpZcttI9/8pMM4Zh9/I5b7YprrrVP3PkZlEmGB/mKR9R+XfQYFcQoK0N1IV6Xos/JHWCHq1tt4GAZ4R7+5mhSTKAX2k5GmhKXeDOGkx4QUiQFbyakJdjkSyYQvDiEINlhvlgLNULdd7OQS5Udaai1vEF4xMgrAS9AFoGztXUt9qf777Z7/vA7m3vxJfZF94p22Qffd5N97M7P2o3vfAfvy6gKM6il4DuhK0GSmAweICbDKA09ktpngO3D0B47PN+NquNpyAHlR8bVCZOQU2LBqznzp/uwRlHRMDocBENSvvr9FcS70GVkJhAKnc6GnJhqc63x8ORjD9uffv/fNn3WHPvrv/mGNTIf/M6PfMDe+Z5b7V1syeIzlaEXZOmRozhDyRU7cOVhgOUzvbbiYKWNLunv987WzxlR4lKiP/nJT+wGmKeystL279/vbvNvf/vbPhauxpcS/eAHP+gWnQLRJCjmz5/vhKH7Ur4vvPCC3XzzzY6rFLaC25SH8pay1Ri5BLqeb23HukqSJRqE/OzZs+1zn/ucbWccRQpaMGmLlL/2SrIoz5XidgD0IwKIMdB+VmLKQvmlEmghoSG6UMrOyrKPfuLjGETb7Q+/+6298103+bSeORdfSoBZNUwMw2Exa56y1nlzRRQxZWzv1jH1ns/qaAcO7LPOKUNdkSj/qJwYMLri16jacEm0GQDVgc+LzmHBmavfcbX1LxiIq5mgNpgA3zzMgDBilS+5vVNZnSkpkfpn6Ust6lLI9LCPf/wTLEZTbs8zPn/7HR9x4b+Acaj6hnraCAOEdmqiPVvoXQweTCAbczY9ahemdhcmkjgjLdUGEpm8c0eZK3EHSnUV8XG017Vo84eO+4EMspl2N3fOHH9QAluvRuOP1TUNCJUUlFQ617uw4PEMcJSRkW2fQhgdRRj/93/8kuGb28HR7JZ338pKc4eQgaHiGujhtmPN92VIQT1GzeN3UasKR1BJIKvHdeBQtY27YCBBbwiv8KoDKtBPmKIbImM/ZipedprNXjDLectlidqMOkslHuLAQYwqAngUIdtFFzHB/dXisw679f232Y7t2+xuBO6733ere8euvvZaerWM0UOE4r1U8NZUupraJmiRhYY8AWsoHLhxEffJt0OO+1iPwXSwYvC5XtCFqF1iOWinywJV3lzll5qWaJdevYB6DjwL07ow7KRiKo9WYUhk4I0Kng+1lvMv+X6YNqjA+7Zo0TN2G8Np/Yhyvuqaa6zy0GF6VJo+J3wpicrRcEILblQFNannp6R2acNgKy4utV1lZTZh9GDJ/R6YnUdkAMXg9JcAXk0d03mOjPDRlpmbZu9451WuNPKYjujPcV3Geg3jTxo6SacHKMNC7wu2PAK6PgZ/tNAbf/zRh+322+8AvjT7CMbV2nX0hlHYicyGSKZO5H6XwZWMEa11F9oIMFPJ4nOtVZBPtHqF6GpsP/dUuUDhPT3VRR24m5njniSglXqQwZZlDVHx48LLLqNDGjoH8oqqDPFqfV2t9WEYIkuGr2qQzOWZyWbdgXdjFB48cNAeefCP9uWv/Q2u6hS7868+B8/uICakCRmV7saGZLF4QzM6kvAwSvaL7pIwdtW2eXQ6ahiq6+gqcjpzGE/0o3rkuvBTitAJZ+CCHph10UWep+hMhoIbNDzY3NrgRnsH8UOyEl2WcdQPj9Yt734Pc78b7O7f32Wf++LnqNtsex9GeyUBcDIe5VlsYC0LDRnkIPO8neMKF79pVc28vHzWiMAI7RojJRWBdcb3Z0yJr1+/3ntTWnayloCdf/7nf8bNk2lPPvmkXXXVVW41X3LJJfbhD3/YPvvZzxIosdI+9clPeWCLsNJ4dRTspnO5+7Zu3cq64BNxgYym8pyTXOCIyKKetJ6Netbq6culL0IQYWgvha/ndSxL9mc/+5kHSum6kq6fy1RXUw3R0pORwhIoMYqU1SiBdeutt9kdj9yPN2Mf7tISxowG2oUQJrxtWzZttP/6j/+wYURzfuqzEJvcnp56M5LYTcNAaG9vdqWjJQ49HU/5El4krw89EnvML4YbKOg0Gz2hJHZLdjyS0rVHBgIFbwmCPZXej6a74YSibTV/XG7GDoyzW+xzTz9pFRgtY8eNpfc2iHYd47Tyve9+yw7u2W279+6xj3z8TnojH2dstxcACR/4Dzddgbu0xQ4ShG4ARwDG46NeqsMsNHrz8Uuc6p6MypBcxbow0rONcs+isCXotRiKVmtqYapjJsZJB3QkQfXIfX/wVc/GXTCB5WMLiJi+yN2d3/77v2W4otFeWbbEvvj1/2PXXn89RVAg/1IiamD1PlJoW+WpJCGozYE6FtQTXnPMlJ+e9TnEWugWY4EKSSIQSYVpCl4LPQpFXEv4qxVUtlgoLTXV6in7Qx/+iD143+9R5tttGi73Qtpj3Pjx3rvRFBsp8m/8r69yb6a9/7YPkq+yEEUCLP8SxFKsDXgo5BoOqgIaDrcFhisNCueATTiSBLYOdUlJMOlKF6v2qUEVRKhLXeDg4+LwtHrUSWxqc83EiNo0GYVz9XU32LNPPc5645vpAc5jqlWRjRl3Ac8n2dYt2+zLX7jTe1IDmZP9k5/9m/cqewCijdWbU0/yyJE9AcQYnILKE2A5jFRhBLRwCI2mA72gTXOhzUaOHgrdyOMRGEp35Glpbm5yHNIxIjxWgBuSUVpnQArsknnz7d67/ttWr1llly1ciFLMsw/fcTvjq2kE/DYwbv+Q7SDmaO6ll9osFoEi3jMGDoowxveu/AgOViv10JQDwLMg4XBLi8VS71F0JexVdwDl/OzGqfJA4XbT5lomORVEvY1CjVk7vXERpJT5re//oP3u1/9mr65cQWDoRVY6stTmzbvUhwVvvvE66pJ2hV6a8cz+6Cc/t6nTZoo02QIFdbByWgaR/W0tDV4/odfBA4JBKQ5owaBT1bT2cbc4C69IT0jWq0yPraIw8U6L9AME5Z4yRyZg1N4Oz+PlmD33EvvNr35pmzZsAcYZlonhPXlGMfyTYP/wvf/LMMwwN9YPYbR89gtfcePcC+VH898Rh/BHlrXWVDrfRPfOxv5NK3FVkJj7ox/9qAemaVxaa+XqmpTrINwut9xyiytzMb6eD5YXQTkgq4pUUJtW6fqrv/orf0/PaR1qudzf9a532eWXX+5MqcUQtmzZ4tPJZs6cGRqH/KTw5c7XlCYZDZHCFwzaXInTxHpfrn+HI9aoEfxno3JPmqczln40F74Rq02BOscmBaV0ofxKccnl0eNZ/eorjD/iauRvEMEfIuqSktFY5H2tTowLAyH/PLnQgVA15tQNU0jMa5wrSdpQgpLxWzyllkJv6ygfVKmrq7aS0hHc435kqnpOvT+BQVSfELuy0Y9LCgQEhxrHlptP8KnOu2lXKXMlGSTjiNhU723VK6/QE8+zasotubKYZQ4XMZXwNlcgLy9dat/51v+xG2+8mfHz/t6+snZVnHDLYPy2sYUxaskYjBgZCb6aHVx8pOKw1RKhPbK0GHegoFP/R+XHhBdHfqqdMgygcaATnYbn5Dr22ATBD221UVHJ9HLawE3CcvCQYbhg+9nmTZs8UlcGa9++gzwe4/Y7PsrSmUX2wJ/+5IplweULYz1IFRYVipJSFSbVcyW4FDU9xy9Sb6qXKnqfxSNLXIhSCQ5fBK/nFFvQw8dqY/AHEcizKAxI24da1BuQp6FTbgZVIC/X1jH9CdfxsBEjbBiCaNXK5TZqzCjbC9/Om7+AMdw0elsNBFuucC/QZFYTcx6hPlSUehkQFllhNMC/Gv5oZwaJotYBn4K5Da3V4C2qxe1aTHtEsDsi5KHn9GioE4lghlNixKuejrq+ag9XhpSnHmgokVLdaAzva/3xURiCuUwZ1ewUfVxjD4bg+z/wQXLsQhY8Yv/3n36MS3gIPe5Oxr0LoHuVrDJDe6fx4SD1CDU05VUtK4F/V0r00hvrWzEu99kFk8O4fy8uPUjwcAwp8k2IlDcuc5WhlJDAqvkovxRWCnJ5xDX1cnVMVflYv9qjaPgIe41FmmbPmcuUsc3MVlmIrDS775677YVnnrZ//OnPwlxkeqzSs9iUcYkpeekswVxTS9QJNIBiTZZipI4k7+rwlB2hF19KfTkDqBpi/Os835OTaIWbqgOS2jl2iHZiGh0xOokALcNN/YFuDXsgY/RkWlqKB+eOgtefeeIxu/DCmfYbOhnf+t4/2AtPPGE/+unP6YQNcPn8za/9tY0YOZLXqAPkXGRUaz17Nzw7GTo1pn6qUQhwTCAORvBWwxsHKvYgL/D+0G4CTqTZm3QS6j0gwRh21D7gJdQkltqAWcahN1f0eG8mVlxS4tMply1ZbDNnzrIN69fhifscfH6Q1QvX2wfw/PTJz7cvf/bTVl6+k6DtC3hbZYtG8b5AtzpzfqGtlHR+NtKbVuICSostfOVLX/Ex2O985zvuBv/yl79sv/71rz1i/Rvf+IZ/GEJKXRa+FnGJFLpEtHrx3/zmN+3qq6/2654nBKNn5HaPet3q0d1zzz0uMP/zP//TmUC9bxkAmvt9zbXX+LUexU1tijgUHKaknrjuacrb8GHDewhV93T9rUyiG5XYh2kb5Xv4MlkkrGNASAEnECWqwJjRYy6wndu3MCbbhoWo+deM7UC5udk5fl/R+W649JAJlA0++tOqYm0IkAzGfCW7ugikq6qsZm7xXtu8eRsfujiIMhpuJSPEUBLQvKt8TkDYLvucpQU5uRO8okqUXJXA0BiqtKum73geZCIGksDKZv71rNlzbcXypW5wTZ061ef7zsASlwGmYL0xBJ0kQvy5rHgUeU+8OHJRT7YGAZWPAvWOJWBW8mGYXVt3M2d5q9NXSckI5pgWa2CPxWKwsWMKQXXhG1BFyaeg+EkMUbhbf6K3Fvli/Yxy4XLIzs/Vi5ZBMrJ0NHgsB7Qku+ii2dBnGsM0RVjrTMlp7LJdO3eyfv0ttI0+Xar6CGzmgps6aWsjuDCJHhmCpJuPRxxg3vDuMvDYsYOhqAOOQwkuXk8RXarKQ2U4ZHBdcP2Gp8I9SSieV5BQOoZhR9thb86oSaX05c6XQadFNkowELdu38rHN55imtJFTksSPo2NNba7vMxKhhdjuEh4StEEIyAFg0bTu7QpfiWTc7neuwiI0oct9m6rsN3by+zA/j0E2PW3EcXFoeoFf4y0fK9jJZfAonXBzrk2fhKIvocFHE4Nz0hhcIV76jToGZ5C7qSyLPHEKdMd3pdXrLTxk8Z74NdhhuKeZzrfs48/bJOmTrNP4qnK62AxDn9ZeQTlpE5EE71keRVkQCiY9CgrDu4pO2R7d1XYvj183Q0DY/wFo7BGVWgMcO1U3xHQeA78WHTE5QCiTCvK4dk06qhDwaqcyDWt5D3BWHY5uNVLmb2zY9tWe+nFoDhEb4f4gMtv/v3n9tFPfxYD+GXiUCYyrDTEFZBmNQS5QZn8VVUdsQEF/ZB3uPa5dwi62seqgzu2bPd8solXGUmbJ0TeOG8IBwVcVLdx+AhyXXM8haokNe2BS1zxMckgqaoQblrQpRslK9d/RmYGPfC59hoLTWmt+g984HZLx3i54oqrCJLLAbZWZjWstwHM/tDHarRkdDqeQi0yo156CluX5BUBpEkMG3Thkas53Gh7dlagLHezXsRWZlyAR8lI2owG8YruqfAYMtpFdALdCnABqw4INKO2T9WwgeSVxsTwGx6f5LGad+kCW/3KClu2fIktuOwyZt5k8Vj4YNPjDz9Ix2eUDWQlQw3RhsoIuUhWiWZb6Y5rsStZW1oO92yl10P/F5QkQVdWVsaa3Yc9qE1KWW7zEqwZzfH927/9W7v99ttBRISihocg2ER42qtnHgW+RQo7/rlAqOE93ZeAl0EgpSyDoKqqiukORR7xLqWtMfnvfe97PudcLn29r7H6oUOH+jtSGt6wDs25+hH+xgclhtiadds5Vt8Bo8MFFUKTXqaYQ2nCpKn2/AvP2YChw2zE8BIIRspZzOO3/SeqSz+BXkEZFENvXmOd+iDBGhbSWL/2Naz1FqItWV2vS82fweItTKtas1P07YLFe9u9ksjzkTvK20EZuyATtErsqXO1vZhYbnUJrLAQioSVnofJeWfmhbPslz//V5s8ZYZdceXVKLM2HxNUEJy8DmVlu+z6m97jwXEtTSAYl9TTrz5y1PIGD8BVt9m2YBnXwdzVBMDIqCHUit5GCwJiG/BQbio9K3pAiRgaCjY5PgkNwUb4lt+SPBZGR1moowmXuHBJ0Tiy4I9LUmqXLbzafvLjf7RJU6YxTXKsC+0MvslddZRgxAcesgfuucsGDhhobQgzRaqSsSeV2QbdNhHdn9JVgNt9m5Vv2m2H9h90RaKSNMuqPi/RNq3bxTi2ovv1ahz8rjiOv8a5uhSJ4CwXOzzSWN+AkXPIFYaa0qfieUsKmBAkOnnGDLv/7rswSkbZlVcTKIlAlcF39933ErvwYYT/ZtqIL6+peGhRvCVD2uHBcqunV5/ap8tWLVuN4t5D3EMlq3yxWhzGpxbqychrJ4J9i3XzYRIFAznZ8La/77RHxsr72Cr2J7rpyWpM/OiRamsCl2bGs3NwaUL5fl8/wisZ4TiOgNVfo+jGMBxw6YJPIBs6URBZ9sOf/gJFdtB+9pMf2w+++237/v/3Q+IEtNCTCpWRx9hoUwuu9CM2pH+uvbxijW19dYPVH6a8RmRTB4oX/AcWZjO0t8s6mH+lepQScCMw1hahjRyiGC4RUuzBTct21iCjGulstKFhk9Jiyqf3RZeB6s29gEE1AaPjiis/jVHcxkI9jO831XuMxaGDh+w/6YD87bf/gU/FjnMDx41d4JCOqGJ62zDmcK95dbvtI+bhyN7D1kigWwoKpa0jBbLItC2v7aEt4WWBqAbRXul1dKZroWH8FyLQ6pLVRxrc86KlXfWu3NFqCP3JsNT4+WQizB/+07326COPM2vpq7QHyh3jUR0uyZAlLyyyiy+d58cyml2WQ1sqrpWIeH3trK2py15essP2bdtnh/dUWXOteuu4qcEjHY/rzo2MNce+RudFOz5CRCnAHY5j544L0GqYBlree7iJlQ4bPLZIslYyTHwqQ1tLxGr8fArt8NCD99mypUvs69/83wQbMyQC/3/+q39jf/+N/+XDoF/7u+9gGMu6I3ldBr2m7JqaGmwwEe0+lBYnq8PDZ+73TStxEbTc1B/56EdcScudPpBgJrnQ5SaXS/xLX/qS7d2714WAnpfyVWP6H5WlpOuRkte5iPP4JEJRT16bnlfj65OJ6olrIZkZ02d470ALyixkXOkjH/mIlyVXm3rfWhRGPcAT5X18WW/Fudp1YP8Ca6Un0ASjZmdpXW0uwixS5x5MArPMpJe0aNGzdt211/m0IE2dSSGitpO6U/WJPjWupjrxJA7FharevOYo1+NK6w+hLX5pOathHSVviK4L44ZnRLAVB47Yy8tQ6liZKln5kVvIi19vIb/IkbrdLkj1hMrnHYzNdhY5qONrRj60QSR5eEs9cZ7CG6D52OFTkdk2f8ECdy3K+JPCFS1UVByyFS8vty9++asoEsqJKd4wT1dfDILp2Lo6m23pyxusrabeOpuYHoWgZZTZoW2oarNXXlxnXentCFxiALozAFfTRPiTFR5LQiXAJ5dmGJsOnY5Eq+3I8PHqyqNHfN1zPSrjRpUQaqTb5uAN+fef0btYeIUbWuq96itICbg5r7nuWlzVw+2rn/+0XX39jXx9rg+vkgGZQPY+R7WxodEVYNneCqs9xHeKWQhGi8qoHjJ9fLaW3tiruP1wXSKdNbat0gPY4TiChhueHLtkVqSifVrpFbUlIjQJsDtSUcVqcZraJxT404M0oWhnInPvH7z3HrvxHe8i2E5DOl0Eu/2BnsUI92xUEkjat/8APrlY5UMgXo8yMqGz5sYmjKZq60dMwAYU9ZH91dAxyruLnj4f6ZDzoRJl+MrKDXyZr57mDO5FwYEPlp62AtXAiUqVLjk+dScwOyWJYaC0HKK+62n7Zl8C9PjndD4E41yzF+bNm88Zrl7oXoGeg5l9UFQ03L77g+/bl5AJB5BHI0tEm+ohS/1I5nSj/CqtX24ysJZZO8sGtxHZ39nOolWJCtJMd+/KshdWAw+0QiCnhLKmBUa910BPIBI0I/nH8Q7IKTyMKdde7xr26T+k0BUSV3qSWHfU2DGWlpNtl9ADFL0qxmQ/M3wGDx9p115znXtDVq1YzjKrL7FQjRYRQSniEQEa6pxgX4zPysNHbMfhvdZQud8SWxRLkIc3SEOXafBmmy1dtAbRQIfBKz2+4mPyNtYYokWXAgDmaGFotyGTO6At9Y417FPA+uBavjTMkZf8EQ8kMutjOPTVxaJad8LnyHp6G4oDEI4y3Dds2GDvu+3Drg9kYGvOdqBtjAB0SfXRQ5aan2sbmMddgzfBmpMtIykHI1Pz1TXc02SvrFjPyorILL1IHmpLTzH4w0mEH/hyyFI+tBvGCFtbYqa1N2As8OWyJKaSeePAO+I3zYySoTAMPlBw2i3vfq8bJ3K/gz0f0VmFZ+fzLEi0xP71R/9k3/unf/Z1PkKZ/FKWvqdQX8OQoY/599JDzzNn8OBNK3HBIqb5wQ9+4D1dKUuNZyvK/HQklzMAAEAASURBVJe//KVNwSrTHHJFjssS+8IXvuABb5HC0biG3lfjrlq1qgc1jTVKWSu4Tcu0KmncSoaBCEzvq1euRWRuvPFGhJA+stFp/8EYjJZeveuuuzxoSgpe+SsPLTLzm9/8ht7sCH9feURbT8Fv2YGLXcvPSSLaOxfmO2xZxdkQu1xTEJOIUYwPUe3aXWaf+cKXGRNX0Eyorw6YVtae3OpiDjF85KZzFMR58GXV4aMeB3D99ZdDtAhexsU2b9IStPtxT9e50TP+gsl27Q0LYSYxIiKILSzU0VsZgBVuiFn0QE8KHoQW4P3NPU/aXgIb+2HEIes8ycBTL7oDl2RtbZ19FiVdVDzCe0vq2YGNe1Kex0j5/Jc+T5vSoyZqPTMTb4ngoC6UDvGt8QSidG+8cR7z1GfbwfK9tmn1AXp/+zxSVPNsC4cNZRrINdYJVXel8h4waTxV0Dr8npMy1aYTftwo0bFc50wxw4C495Gn7CgM2H8I02j0Mpa60PdeD89t3rLVvvr1b/KJ2KEssch4sMY6eVCR6NlEss6ZO9ejVj3yXmV5YRKkCeDGEpYJTRhks6y9vt2qKiqtDPfzrvIyPnkKzbfUw0fFTCtklgZ4qKqVg1KsSnsvhMt+R+SiOABsJeYqgAs0/7u7n8AtvIu4ickML/CahJ0EOgJZvYf9GNyf/dJfE9RGrAUVJBf5vr177NWDK+2Zp5/ks7A7mNZ41IpHjibq+iZ/Ri55xTvsP7QfvDvthuuutJTmNtvL0pY72fbt5vv2GFiNDXU2athIu+VWhrjUYxJtucQV0MIo0H9oA11T6sGQthA2eAyA9/6HXrQDe/exbjqL73Bd9BTqRcJbc9zrmeb3aRYEmuAyRjQnhSJFrqlWA/hgSv+Bg4hyZ3U71UGsLBmRR1iaWL2ra6692lIwNivLWT1x526WKz6AMmGmQSvtS6/+PVqfoE8KSyQzTZYeYaAqzyjYtH4YtVTsemzXDv00IfseePIZ5Nc+G4RxofeDHKM2eE3tIv74KIGdF4wf571XGdhFTPFqYXhDQ4LqtRaw7G0bwxjt9NJ9TJh80ojVOHwIA66rya6GrlITZljF7p1WxnK8B8pqmGFQC502EjU/1G7/+E1BrqhMEY2Sgx3VPXsnJvaKU/Bm4gHqTYGdbSwk88ijrzAEutYuueJy5xlVgD5oEjodGG+49T+O+z8jm44CtOb8D36ye8rLd9kQYns0nix8VAficMk9AXK0Evne0eJxUJnwcO2hOtu5qRw8DvhMhaaORviu0N5z63WWylRRr7zwqjA5cXJ+Bx/BIPpBpjYSF/QnPtK0ccNamzLrQowg1r3AoJMnQXDpi3fVGKkf++SnPQZJvJ+RkWJbt/Fp3k2bCDr8CHV9nX36Y3fwjYq1PUpcy0JLMB+WFwzDdVAh0+Qo72wmauHNJVWKetaa4iUlrQqQcFYvWUykMV+5tEWECirTKm0vvsiCCNzX81KiqiAtufrJT37SrwsiF5jc++lPf+rPRNdkICygJ6cypegffPBBjziXAr/77rvddT9nzhw3HFSG3PR6Ti50Hcu1/4uf/8KV/pvD/E287UyD+oK4dDhh7DBbu3kDSrrQEjNCL6GGxQUUVb57TznzWKnfiy/xelUvQGOBUCN1BH5EB8vDKaEVsaEgU76tCNcN6zdZ6fChCG3WJ0Yx9h/EeNL4EW7N7sXK37lzK+NYjKFquAfBT0bhZe3jkzLXpst+KyhJcab6WBojGzd+jK1ctZE2Hm05TKVRb6+WxWkkNg8fqmCaTZ3dfNW7aXcZKWQCDrV1NfbTf/mxjSotteeeewZF1sSynuNZB3qKt7umxmjK1iaCSaZPnYBrMNEymMozmjnvpXwUpba6luGTfbZt+w6EMavKZTA9igA4fZAl9AwCvD3oRAfCwZlbEoDEuYRJfiZzZMl70dJXrGhkMdHBBGnyXHNroxuajeCgccrbbvsAXwnDLe6KAmOp6rBt3bwdF/tUjitsGl9v0+cZJQU1XNCKUFDbrVm9hAAsfVcdHc0Kbv0HDLYxk4bSq51EcNl+H5ZSGyRlovQQKvFJSvj4dMwT9HD1iFCkM0xg0Xh7CAU4beYkcMXIQ0BpKqAWdSljDF7KT4JIY/boPaogxb7xzb9DQTAmyXjjX3/uCyziM4npjbd4XWk6TgcwtTNksqtss02eVsonYuXNga+nlFjpROiKD2Mc2HeAtaO3cR0BLk8jQCUrJiM+9aAigCPiEk3pISgGL5H8K6nsp7PYyDOLl7NMZpG7yeXy7FBcAW7ig8xTV8/p6quv9eBDGSPoPg+A3U99Tps2w8eZx2CoalXEMF9ewxq4memdbmUMuqS0hPZIsTRcSvnjWRDkglLc9y1uWGkcto51DZKy4TvaMY1eoyfQiUiJz26Fa6/jQC4LJZ7thG4nwB/PLVnhnoX+fQfAN63QVDP03WmHKg64UXXrbbeBuzwEijHpYp75CJbR7eNj/iNKilFylXbNjTeQMQYbi62ALbZ+l72y9GWi1idiPOo8mUC8SRg1k/hOQKMd3H8APLfRKcKVz6xcHxOP1XOo7xj4r9vFqEuIckifmsWCEm3K5CK776FnrIGev+Z1d8KfdfVMeyVIsI6gyM1bN9mn7/wk15qJL2lzueVxIeTxBItyTSNQTGs+KEn+y1/XjaKTvN6wYZ1NmVRsgwbw0SaM9vy8/lYyisXD0BU7d/JtDOhK4KTCWj7TRnj0NIRneeIf53VHmueNGQmJNv/yWfYvv/h3GzV+FFNYs12By0uWh3zRGiabNm6w2z74IeIA0lz5t6OgFRPTzLi+vkuhjwoNLCTQlY+neKbKmHIUwLudAOzRpUVMu82kPSL6PjFob/bqm1bi8QCI8LRam5KUrJR2PhaXeudaaKW4uNh77JonrqhzLRahhuvfv79dyzxVTf+SEaCGjVL8sQwBfWRFY97quasnrnwuvPDC2JjSWPvud7+LtVrgU9G0HzIEK5z8BVt5ebkbBVqVJytBWutcJeGnHjdND5NPRTmt4kP0+/buJtp2NJZbsn3/e9+BqFpYcGC2L1yBFDgWWLLYVVZO7yLb66GMtdeHM2auFBlG5WUoNlxuc+bQE+N5vL2epEzSUE5jLhgNAY90olOwk2jQn4ur//CGMo1tuiCh64JXEgplw/im+ialrEe8Zt0mBE65jR87CiHUZv/2039G8FTYeKKcNUdcY+UpaWJYTSfqto1E4WrO/5rVrwJfWBTl+nfe6GPJWuJTCqB8N71UPAhzZr8DgeB8Alu0WwJCI6dvtpXmlKJsxiKktLqarHPe8xRwCsdC4LgUhxOYeFJ7jOGTnavXbLLtm7agBKZ6r+f73/0ObtejfMpzGtOzPmRtKBKN0akkDVlUVtbbf//mP+ySBZdTh4n2v/7ma77Otz5qo68pae3yXUSxtmEMzJyGgcKbXs0OFvNN83PsgoJxNmbCGIdDPWpIlhThwuEJUNATEew9Op7n9Ki+0DVoYB5xEAjGKax+xcVvE2SaioKeNG26XXvdtU47EjzBnAyBkOmseNaK12vC1Bk2vLjEQdCwBlrTCxMfNTMFaOIFlzp0Gt4WPmqrnPxMK80ttnGTS91oUHt5EkDaTpqEJ5s/w94nbMsdnEBvtB8GbSKKaItNJ+JZH5T5xx98D3dlDWv3T7Jbbn5PCI5C4SsLuYo13/9+hvLKdu1y/pcw1tShdipWQw7JRFJLQVcc3Gc3feI2R00dElrF80hlxbdxE8fayLElzqfe1moPbSQHM4bPseZzz13PR8+LH/VRkhKM6VXwx55d5Qh3fZfe7Mff/yfmtVeA1yy77vobvSy5mBUPo73WFPib//13fBL3ERR6sV153fV2IcNrScR7aKxZCkPrZxw+st8++OF5vlhNDEQPNNZaAiWji62YzeWN2kNwBzRjiAjmE6WAoOAPOAYqGTp0ILE8g2w9bvEpwJ1FENqPf/BTDJH9/sW/Wz/wAQyfdssk8LapkWEtZQ39SFlnZub4tEXlqaTxaHkbW4jF2L27nM5FtY0dRSwJ9wJNieTwqFEfo5EpY5FZMiJliMjAF6+FnDy7N/6JPShSVmRHLivL9R3Qj5Ug1xKBPhvdk2K//s9f2t7yHawaONneffN7oTsta6wOE8NUyEgtGnMb0zMXPbvI15Kfc/E8Prc8i7rV0GUnwXaptn1nmVVilL3ryjluUJ42fG8M/Unv4uFS0765dLIsdF3Iax//jEghcqOrZN2TUlbDRpvcrBEDRNBFDR+dn2yvMtUzlyEh5R0lVbLDI04nyc0RzbGMnnkr9/K8yGMl2bPqtW1Mt1pql8yfb336FtpzzzyBEZRo8xYsDJasWABCibhOeHiQkcabQEduZ83eVB2lZyRZGW7mFUuJcp022S6dPYF38ZgIOYje2yNwlvcS/HIcFfTW80nIr0eJq2AQAC6tSVwPQ27eftCeeW4xLuXZzKHuZ0uXLnE34U0338jiLgQn5WjMVPQgmLXHGwPsstTbcCmodyQ3p5aVbWY6WT3ek2efesoWMOd07oWjXKiHFsX9BUY+Zs54tOPg4MbDLAHht7xe4h6KqjHcjP0KJnG3qmbD9nK+ib7YLpwzmzmhQ/AeLXKvx1V8IyCV7x/LVS76clKihyrvSKeP+9I7l3QmM3072hhDFERa93/RoifohYwBj2mWQ1m63lvXnHAlYKLj2AM69BRT+tFp3N6bMu5cikjz8zVWur3soP3+rodt4ZU3YmAPtKXLX8IrsseuZxxcC+jABTwdqzN2ncAt3pSXjC4hOYimwA0Bph7lIXogzz3/BNHs4+0SaCsLwwt56gkqcLAjHBw/r81wFAfi6w9lPQF1SMgMP9cZvSAGlNcxm+IeXPwXzrkEY7GE5X+ft0bq9Oprr8SIpM/uikY1yB9t7p4pKWzRGEJYy5l2AWgynYQmelL19TX2wqLnbPq0iXb5rElAzmdu1aZOMJGmi4ET2ykfeUNi+sfL0S2tJ3BsiuEbqwidabU8eUe2lR+0hx99wcbjsSmhZ71y5ct4bipt/vzLUHD6KmDwbIqvuoicVsS2hoqCFwZ8qCafMQDPKXYkoaPVHn3oIZsxaxpfDhwL7UlZEhRL2T7sEE8cAiSWpMhON8XTKOBpdMk28bGVux9eZJPpZIwZXWTrXllOEOF+hiWuhVaISZA3TLUKD0jGqh3i84nK1mJVCcTTNBDz8Phjj9vFMyfaRZPHuIcnIVGqtjdJYSsJN6Vo9b0e+g2XT/mrKiF+1LdDfJnx17++y+bOvRSjd5Qte+klDLu93qnMIBBQ3jAGCxx2fSnyRAnWkKfeZVMNQyJPP/U0X/grtesvm8HX9jDIxBfHedVOlM/rr8WE1+tvHHMl6e9Ix1w5gydqNClRbXKxR5uERHyD6lgCsec+zwdmEcP0bqcLmghGeUVlRHu9L9eozqUoJLv03LlMyATgMXpMfRly6GRd+VW4aIpsyvQpNmIkHzOAY1KJfO5iWgfVIgR8C/RMLw/FpwC2JPViITJYhbGjo7aSqVyFfK1nzuypvnKavJmBbwP+KlTlej1L8Pl57F5PhYQ3ek6jA132W/oJAkxHGk/Kp0d5tKoWdyYfEWFsfOSocT4VA9WGAqf3AB4aO5byFT4+Zk6PNnwIBNy43o4BJteVpjA9v2iRFTGGeNXCGe6y9/pyOISpV4ig9z/1BF2Ac7lnH8PLX9GPkPZ92MX/RraJ9IeWTWxr6aZHvppvoxf6HOSi4lHAz/rerIimnqG8FxK6AQ5VMLRO/s18IlSGjab9ib409Wrly0tRovm24BJ6kgg1qU9BEk+b4UocRDFQoysR6NF5tKfWjkt6UXXDRz7ycqjrDOpxBfPCixkiGIwhgXAhmKcNY0oK2nvZgkaSPbzmAph+Dnvu84yi7DU+/jJ4DB8xxBbMu4jxfzluY0mVR9I8bn2Ix+dz+7FEprZT8ZneZ+vBGbqKKXIJ7z58JrIVOFavXIUHr4Bgz+kMwRAIxth+GAqgBOhKxpU8QDJyA69ojyygzjWkQOfV3covESHdf0CBXXrJLHqzKE4+lJEEDpouK7Grun7dFqfAAdbva+9wh4PYr5DoQSQckZlqQYo6kTGGF5cvZry0kLocybSxsSHCGfQ19NIhHnF+1YpyrShE+IOX1R767rb2orXm2jaM/ecth2VrL50/y6c0KpZGNIgE9XJ7oOg5iAMxdniqXTyNSomrZ5rNkEw3sSDLli4jkLmff9xqFMNoScn6rgOySMhSl2rSRHms1JwxftWRhuA82A0jpYqhw6VLlloesQeXz7uQoDLeAV7VRbxcEj/p3HFT4ziG+j0euTfGCJA8SXIloncymKb4At9470fsRHHJKI9JEA4yaNugJfGrEAn1oLdj5XFfaHaAJ6xE4GCTvfTSc+6BvnrhxbQHHkoedUj/PBDJVen0XjojSjy+ot9Ox14N3theI+GHepERERkNcXfe8kMRqkhCqlcLsYxAOB5m6sNKvtqUm8+a5ExPkFylKxLIHyIOF6Q6sRDFsBCYmKQd4aUFLerqquyl557D3cUSlFfOtzwUp6xzEYRb5rFCVS2BKCO0wzN6zq/7A/5aoKXe270XY4KbF1Sp/MuzwUclCvsRMFRNoOJaxrQKWIxD0dHyHAT2Eex6R+qPN1AiYksYBTz8wxV0WSpZp/15ekoD+uUTPMUiJIzFkTXPUVRs01EAk5x0TzdPlvzBN3gguhVAIwqWqOchfDubgKCVK18hSKfAMrL6orwJIGDBEI3Zem9R77GIufqsErRSehob1KppaQB8+OARW7zkaZapTbIrr7jU0gn2keLT5kWqPTjynhaHEZgn4qPwRng+/lhCLP4v3AuqU275wqIB1oz2WrzsOSscyhrrjOu1UceiF8xnpwuawD1CXQ6AcANH2lTd7HbarQY357PPP8Nsimz70DsXMhxFi5G3wPdNEHAtbBJ4AZdwIGyFZqyRops9eypdmfj98Izno/b1NsYY4qhQ0/aY2rv4xSW0RZ67M1ubuQAduntV6g2Qceqg7MCBZWNl4IYxf437M/sAhfEcnp1BKJ7rr5lv/VkbPhU4NAMg9LRUk8DwBilCI3rEXbpc7N1H9RD2oQ54GhSlmAYUFhB82GXLli3H1U/AXXoesHETpSAOEcxSguLXpARWCpRB6BHcQfHpQyGKZ3j+qedRfOn2gduvJnYj+BBkGKvWVLV63wvVPtq8no+Fr7fdTnw9wtP3gpE8hMfIwX2ZTthILMsyAtUGY4gQgAys8tr4vHJ5QAQQ7zhiZNBF4yiITUNQwlFj6cuXrbDcrG67+R2XE+jLGhjItGTBqZagQaN6dVy45rQJPi7PHC9/NLp94r0DH370ipRvGmBl09svGlCIwZ6IAsZAzCskfqoPMRxMySNYT+PuAQYp8pBkuAcDEW8Iw4ISFlW11bjYn+ITzN1223tvsIJcYsMoB1UTawe17J+bVAenTmdEiZ+6mLf2iXiijC9Z16MUfxxdOyd7gQRcmhcrCVTK96w7mWe79KXl1oT7eSC9ty7CreVmlntUn31Uz0jCWcTs70KS9azNvHbta7Z21as2icCchfNm8wk8LEGYITB1eDZWXA9P99aVZyU5c/rJlbgENAQeq1swccu1tHgYAS8dtmzJMvBhDXKi5zTGl4oC6YDw/fObvCelJ5ehu3C5Xs8Xrdavf81XqJvAAhvXXHGx5SNo01WWAyd8lMQUEbTsY3Vx0r2/8wY/cVl5tpzr86HFjI+34hVYunQ5Ube1NhDvhoK+2jCa9JlUwd9Je8jYQgT6qxJimqe9Yf1GW7r4JSz7ErvumgXWh2lccrupxmJqDXBVsITnG8D2Z96KxIUElY4Ve1DMF8G0OtkTjz1KcNtRG0xEuqazyZDSn3p3oqdAD9gpBLdJmWje+BbiNV568VkbO2aYvQM8shCyLtKAObRFPIABn9A2uht7wvGLb7P4d7h+DP46UQnawvuCUXQ8DCMkNTOX6ZKLieRvQZHnImiZDpbEegC8JvmqdwKV6AJ4MWjf2NDMLIBdtmr5MisZVmjXX3WJ5WcFA0YGQsid91wZAw6vnmxTCX9JElaeJygNZZqZePpFeoBNTJnSqnMafw2KSTiLp9hQiqIxTjyOpJrI/63EkSx98SWbAJ/fdBNfXsNYlBchEYUUzB3ho78TpBNePMFzb3RJSJC6cfMPKxqMwsu2V15djbxqxOjm+wnMMJHH013owB4pYUWFi4212pu8JZsJVl286AW+8jUMQ/0y2kMyTpjGWpCDCJMT7wXFX5CUL5voJXiM+NrjcIyQVNYKgM/rahtZGS8X+mfFQ3DREsAMUPS0g17Wn/BrY7hg4+atGJYv2MjhQ+z977nBcjAg0yR3Hf6AD7X1lwF6Gm9hVASyP41nzz9yFmogErRy7bgdDvEzFMZUrWp7/InncWHWEHwxyBd80Zec5BZ0N5BPB2OKEvM1txPwo4/FaM7uwksv9g+EpElLQESdUBI7FwMCPyZSdXji9JfQWlxOYblTzSfF2m5PJNil3p5Z9rLtOlDB1KnhzBUf4cGOWnI3AyD1Cc+2tg7GBY/aho1r/bOMffjS13VXXkTPi94v9ZHqxkLobQcMVGskyjirCdaQ0m2jl7S/ssYefWaJ7SSoa8TIYhTzRIRVJt6SbKxxhjUIlkzEhSvX4K6dm5gSVW7DmW2w4BLG1PnKm3qKLsDJz0W06plN7jYl9e7OZFIwEGSE8Ak4qM+ttG//ERTyEqK6D9N76s+iIVNYRjafD9zgAtXz4NyOC1cLbmzftt3Kd+6wYQxnXHzxTBRPASu0EcPuQsyzOwk9xZALj5yBX/JzRkFwUqLWATpY3WyLnl9q+1i7egA9qZIRzOnt2weFluofrZGjU8F5WsJ2165tBH4dshxWsbuMQKzx44Z6W1girlKUfySUTwbomWoar18KIa7c2vAvdxJdXsMCQU8+tYSZCRXWl+EnLfiibwRoJTrhKozbiQ3Rp0kP7iu3/Xv3MF8+w+ZfMoPhhBHuMdL4f2IiqzbGzEO9FSOrE6D05rFRD1qdCI12iMY0DfAI0/GeefYF1hc45LMABhcV+QdpNHtDxomWS04E52a+TbBz+1bk1X7czenM7Z/LJ5KHQH9B6amdXfmR/6kgPdX9EyDfc0nkpKS1GXsSF4/wdcHHnnwe/jhi+USfl5SOZspsP1962WUp/MGSM9bAWPqWLRvNP2DF0NtFF820CQSSZmJv+bCMuuFgECnyQMA9JZ3mwelheF6Jn2Z1ns3HRFBNbLL3UiB0BXopIETzc/ZX1OCW3miv7dhnrYkocXpHispkCX+CWuqZ8sG3trFkZ06dbAP7sAwrYzlZIiSY3+fEOh30MvUpyUKS5i9N/q7Ymg0a7ta3MlG0LeCz7XAdi2lsJGjkCONjioJm6pjGZPkDZVy8fMGMIYDZc2fYEL7QlMpiNvomhpaBYMQpQCT3rngjSmddiQMAilkLWhB5gLACj31HbB3Kbfu2HYxypIFHIkMArMrUzZKajOEr/mPw0BybPWuaDZERoiEG3nehJ7ipo8DeAYmeHvkpGyZC+nT2mrsvseEqnF81BjCw90BAhO5hFnB55dU1RARXE3uAWmEoQzC6ZMbLkIB1oRUXxxUX2yiUdwZTsLAfEUtqZLXbGwEcnjkdSE/vGfLTGLeSekXUZyuwagrWXuhqzatbbO+efQwpCc3QY9IiKEKHNTwxugYRjT8Ot2m+5YOne3iZE+4r++HZUo9Xz8ZK0FvHpDfC9JgHT+NENaNPBPsmLkWRd8IfR47U2Nr1O1gGd6fPx+5KYtncTuiLtpBhlUYveywrx10EXfUHD7GCAnN9bYdEFr+CQtULF8egOgLuJ4TnzWOjfh//VHYY59dU0k6ORRcVlbVErW9mCmO5NTDU0UK7KZJeH09qb2+yBPXehw6xi8Fj8KB8cAQPDW9iHGomQpR0dCpIT3U/yutke6EguSvO0MQddY8UEK34nQMV1bZm7SbbuIOFcxKQu9xt18JW8HkGSjyVNissHGhTmL0yaFAf68ssgG6QSSUeREMIWhVOOYchDQ5PSl26d7J0ehieV+Inq7+38LqEB7QMoSB4YPBEOEQ9oUR6CRov7mL8tZGPTFQS+FbOspZbdx2xUSNybShrCOdhsefSi2JdBHfp6l0ttKLPSKqH4YvHwBGRGj8lWYiy31QSIEGJownIiR45eWpOtXq1nSjuKtyHB+qYa7yn1obwSdPhTEsq4LvOGUTV61kJCC3SkkwPQyK5hwGcMXoZ3RF+U7Ce6uUAjKKPtRCMFlCRm1CCRzEIVQx3VFQ12dKtB23i2KFW1C/VBtC7yCDoDZnkbKuFPsTUPfVPlnEYuKUuKM5sT1x1Jr+O+qPhKCo1CHq/6PXc1ggeTAPaw/eVt+xpsRFFGVbYL90G5GW6gZhGBrIZNXQQ5q0LAWEQjwWnx6RQ/jGX3uwJQtMBlminPuVZEM8oKRZBBmE1Ec6HapmuuPYIrs0s54+BTEHU8rkCWW2SQvtpUZLuLmbDSGkwRqvgPrI4aTolz5z0zRPf0EySTrnbAMojrAUTj7YCRDNMUguv7yM2Zvv2OivSug5FeHwYwsnDYNcYq96TYtfQh75N7t88IAcZi6IzKZyTt8+Zw0bR+k5j3txS6DGagImlCg+zEFJlQ4stX11p40bm4jFJs/4sbpVF5HoqszY0ii+DQMNsetXbIJaFdsLkjdKZwEQ9cZe7lJ4kGYUS1/CevCBaZVIB0FUErB1iBsz6snrWqei2CcV5Nojp09lYtVpSWEnvJshg4c3Ay7J43xh+f/ENf04Pw6gj8IZZnb95dmtATaWN5ueXxmengDVPMIrWoc5jLfBUVgg50EagWha9cMah+tLzTod40qF+KW4OewhHRKjcnIx0nQM/9kzP5o8wgazcMg/lChNtfgm3WQqC9QCCKimD3gPjgkMGZeGi1QPdCNoI0MAcXCXFE/Nbg0UoV0ZQqDyP+pWYouekulbQWjKKrq6RCPC+/VkEJdkK+mRZNgo/RdPmwNihhpGDkAj5nEowhXLf7G+oI5XldOWEoTxjLstw6IVk4PHIZ6GLfSxtmciYZBcCbADfjWdtIOiKcD29621CnmpAHZ+LJMnobaHCxSlya6rPSY+cnyQ0dDa914ON6ZbGQiCJ6XxxblAOPVjVezAGHXLBr2sabyaXsLF7S5PaQYYFgAsUypYCg6R8SlJuaqbltPDxI5aySEVJDOjLd+HpafvX7oQOSd5aHWq6VeB1tbZyIsV24eQs/lKOynTPMcW4wR3hAy75TMWsSciwzHwFfiYx7s+656nwPfwRfZkuYBGQOhZsnR175Wxgoh64qMkNH+GjaQEklawV3JIw9gYQr9eZmGsdu1sRUazLzwIu6TyXysygDud14S6vCEh7g741sAtOJZV6Pr1NasCbHiHTG2zGsZQAWxdrOPNpCTvEimYtzJ2tqkWRe7cVspEEiDGPoyJhFzILp/y+pWTlAve4EuPw6kAxVFQ3WQPWeDVrF7dzT72q4PxV7zEwtQPfAzn5SYnoVrSFB87qr9hbzOmbFABSE7Ctg62Neq6obITZw8dPfMqZnuFfCkc7zRKXs1ZuNTGb39Yjse3sAe9AUHJQGFIava69WKk80gY+LQirg7WsT06cRQ1zrxWYpzpWjzHMgVaFk5TlOU0BJ4GguoyEV2QktkJEh/BUdWCUVMAfnf+vve8AjOQq0q7JytJqc85erzfY63VYZ2PjhG3MkZPBAbD5zxzHEc5wBwfmJ6fj4PiBO45kOExwDjiBbdY5p/U6rjcnSaucJv3fV69fT89oRhpJI2lk99sddffrF6rq1auqVy80iEza80fq868NuqAQ71WR2shxvHL0rwRVRjCkZQxx4mKpVhyWksD53s3wlMABB17jglbAb0nAW/2Z9lV8iCH7ngdPPIxZyJJTSkvW7wDGWtHPt+84gGsQp9G1YWSL3sDvGcAkYZw9UtkCqKiB1VR8OSxn343llfXaYHHiM+91ETEc6HsP4OtlvSnpxBbTDizK0Dx4b/o1Ocspxco+b6G28DG62n4wRsX7xY6aAmQG/NJYsLOnAyeD4dePbSedcO+0w33IgRIPi1FXlK0sDwPlibKpx/3ajc7Q0o19rpgzb+lJwbWOD04QgSwk8oE1wViwHaDwkvgwB5Z+CfQFhGxcDRC615uaOcPmdmdFIAvirId8+I1vHOVkP3inCcfztmIxWx+GVP105+K4THgVda5WJaqjb8YXuuJrs2TlR2haMYLthIXVBsT2w7Vu2sMKWZNSFY0VusVXU7KUpn5THHUeA9vC9mN+WnjX/jbtH219IdnRQh4z/hxHc1PDZH6Ki6WCFjexfwgK4OvDbpPWNnz1jIsVpEp6OnHF0bb6lTv2kxyQNRuzTiz0WrttI+4G6obB8eyrbdhJii2/4Rp8GwQfYlIPFWBFw9FAdKGeAOB9JV4GDDMYCGQm/rh/d29TL6xZfl4T3+7FeSLN+KSojtJRAAUAOUrPC+etpyvoPaVEMT8kK22wlVIpYKUtfk1QEt3wgfanYYzAst3XjKMZwfz6Q+VuDm+vnoDO4dJBPQAAQK+c7+Pqe3pFcPIXFrZxLhOfR5Dde9qAHxfCOUg4mFD8Dhks0mN9zQUEfLMPXpGeJD7uAY9CJ4TWdoxisW0WODmCVqWtBzDPrdtYA+IsvcbgCrgoQxl4qAsPB+LcahtGrzQQ+zA/noSy2IPvzeuiK87d4r3JwsYZGBhb6DcwdeljeFQsFyLyIJWOzjS2a+F71P08njgke/Z3gN9snYWgLDbeljN21zTbA1b5AWyz7IZg6gzEpK+yTrbv70J7oR2g1Lm2hKPxQlQvBpuxwyBTMr0fTT34VHZXHzw6WKgbr5TWJhwoBIORp/Bld20+l/CXAWPQO1LRD2VIAau8LWh9/Wl8HaoXc5UhzINjawxW1zahU/RBg9CDw/kb9eQgQ6YDUH3zaYIDzVUErj7th6t22258UALA8hfGnN/+vU3aGdw+gXQGCV69PxRCdOyPhY55sJU5V2joINyC0B0Qrp36xTQaUmns7W+DUo+jc7NjG1c0RyAGd9MSRilmoYRiVUeOOR75K4BMxadqOTXDL35xJ0EQnhHwFedo1L9LEYFEOuRwrvmL8sTm0MxtsNLGUzEzkNb8wlYLlLbgGNKKKNYXY5VwG85P5/cWbDoDIGEgzdkW5l6fGVfgx/elDln1o2Jj6HEXBrwJzTg9Dp905SKqKKZy2vEt8l5sw6SrfKhfYSwsdqXGZGB5rCkBRb4LX/LqB8wJnFPfjsnAnS17sbcfsovmITq74qLTHJzqyPcbHJuBNZc2RvkDyOzbvweLPLE7AwOnGI4A7u8M4gtn8I6wj9AQoeAi9wDXwSF20hXktNz3xeHDWv1QxhRwBQ0WUVRE8M3xaCe2kHVKY2UcB6D0wUWFhSIQYCEsuKAAQM/I/MoML7poaYzw870N1dimgb2tDVVJqY3y+/BGIJcZyHnB4bekw9B+FdjiN6uyn6d7Y+9uP/DqwsI39HSdG8ibtewiU/hmQRSfRmV74BgemY7l6LUpfDcbh7zAMgRmaBcqS0dhlh0CAIifBuV2sxik7PT6BPpIF/iqD3t2+3FYDb/J4AhaRcOMyssKD8AFfY0FkRiL97XDoGqWmVPjOFQHnw+dgn6O75j34pvqbAskG/RXFnhh0VcS0zPcXjmrIi312OY3C+3REMH6l9527HRAe1BflXlQ7w3kbrz7AHZrYEIg2I6zBvCr6cL2uWZ45NBH4JEz1u7EIeRvMStzRiJ4ykzYo9gFd+d+HCzyLL4TvHLxDJmOQx9i0IxRvDPfH4d21AUzZYSUKmdKT2wLguHaC9AwHS5NUOaPbm6RtcvqZEkVrFzMKdOipNHCLScUaq4BUwgdSrRxDqwS+gJjCaOrobLlmgd3yvEb5sgMLBKri3MeFh3bWbKrCsS10vFqooNH1pCvkuCddvBMEzwJD29qlyOXVMlMHOHJlcYRKPUIR038R76yI1eOPiYyODjYETanadgePVDWe3GU7BObm2T10mmyAAcmROCHJj9R1FL96WCJOFlclOv05cT9IfB0iQSxFgH7wbkTuRVu9LsefFGOP2qF1MBbRUOROzc4Xi0U+Kbw20K5ShzPDoIfz7JgX2+H5+rue3fLusNm4kjVoNRAoVfC68O1JfRguTyVD4wJRob8lcLqc/bxVnz29tFndsFIjMnieVOxNK8Hx7bi09tpfCSFPKTELzHARRbnbzHLxzxlGWeEagzCNoyOQOEKlQ3XFJUfpQADR+NGXOljmf2h3CR03NaBb5nhNDa61vCDguCWk8kSqJ+xkFu3/BCfChggPJQmwu4ORc591ZRlkyFwrI0vv0MY4ahIeHSq8KvkoRbgKt3ABVwtLuXeQhiPa5+wAla3oLGxFAH8UYOyjLFAG9B4DeE72oQdKxQwLQC+gjLR7Vvs53r2QvlzFs08HpEUwdqEKJaBqhGChuBpZqrAJ0l/5zQHac/z82IwS3ByMdqEX1DEYUEqzchP+E0gW/lKvPz7gxk1YCU39+zyDBeJ8x5zyhC4tAL5GVAe68luU34hw+SUoVHgwAM+uVAn1l8lIfyC1egOiKeQ1RESb8u0kys2+MOPn+gecsyHhanQ8cNyBQQ0EG7MFqLyaw0vRKQxF1TxIygh4BHjqBVPAXx4HrYI7shfZoMWmgyB2JdPsDxCViHn03+Ab09JEifQcSMTm0OPccF7l684j8lQTqgQFo5KoSbQClB8Bm4atsSBuLEtiOFkCYSWHwXi51f1K19AQvuMDjS4iZR8Vd7B8Bc3iXJzLwwrrIURLCzmvHg4WK0GicGAnWPisJk8XFHe7T3m0OkeUdTCs6rQG5RneIoWT+DiF7UYMXFsVBz6FLaEkau3DbT8a6DmO0ja4goqg1TawUl2KjuAza5OBZhGm3AkPlkCVbhyD/DQ/flQ6qpPKJc0TI42UfYBvHqlQYg7jqAyay1chAxa5fTXAk/oHTDZJiaAn9TQmlTdA5iAryCniBrbgtMYlFX80d1gFvKZtwbPcv0LGOkpVF5iWwAvdBBVnCqHJx4TX4mXK+/kwkVe0n/oBmAiHjJgu4DOLWl6G5ObuYyeHbh5iEgac0o630+8qAknSwCoKmuJi+oLqG/EUR1q9+b8MVvHolTW+oNjIoAKw4NbnBi0KRR8y2MWEX1ddn+8UCqkoLddBEb39KQKRGCywZyHwESDhoiX/vqsfYYIIoUyWp7M5RRFGDnNoeDCCMFV793OPfHAZgy+iYfFh2AICoB/lHUoank/4ASuIfKX02vtv+gNFqdygm04sFAc8XxlLrjlHDLxMa2jN84fE+uNKZd7toCOJYAIXeuviUA0XiOoTN72MJzlVTAaw9HrpAsGZvoP2LfLDQN/JD5ZGApCiXOwHC3x4wI6goXbkAzFex3J6rxymbFYPmGqIAIHDP8KOqPy5SuHtgLsBM1ObxB+LE3QwHierBWEUueoPEuRlMmow50SdqWrM2blM2C0MpbuTz2Qw6A2Kf9qnzDL0Scl/C7QZCzgUX7qw4Uwc6MCCY9Ybc++oW1AYx38RI8P403fQR/BCHfQ0XgZyQDSnh+TAsDEoqwCofLDJKJA+bHQyIinrmcoDS7emcw4UVRx65zXxVZGsqdg41CZ8ytUpD7pTxuDy9oY44cyowAaZ9J53Tgfzh9Iqf0BN6oCaSWqx2cy9BLLBwYP+1RuV1+Jl1uLFIAHn+B+7QT2X07CsjPjN5m6M2H1/jgIV1VIdLSF0KUm2ejPCFfgQU3uh7KjAJtl0rUMuzb6hFEwZpqJOExu7w4wsK6qMuISX4mXUWMMBYp3kchQacv5vXZmAKjqezJpcIeoA0EGRtqTuHOgnCmfBzYdMRFoujnzvPejJpwCdqXFhAMyAgAMS5mRrMov7R+TrJMACY43eFZ6Odq5vhIfAWNOZJbXWoO9JvSGKkKOljgun2wYTTZ4J7L3+XUPiwK5uprPuXHDKnBiE6ewo4bTZuUWXms6odzo68PzeqGAdm5IKHWl+93q9dLsY41nGeqMsUa5/Mp3DA9+fpRnapVbm/jSpvxYxodoElHAdGhPN/J90pOo9XxQfQoMTQH2butA0F0nQ2cZ1xT+FrNxJbdf2WuBAuVmib8WaOrjkEsBcBm3YPmhLCjAUyZ54nU59n1fiZcFi/hATCYKsCNby3wywf16g5VCd6jgq8mhKPT6fq9Km529HLW30zS+En9986iPfTEU8HRgX4EXQzA/jU+B1xYFytlo95X4a4vXfGzGiQJWr9vrOFXrV+NTwKfAOFPA9dags7O/l1uf95X4ODOEX93kp4C3E7sdfPKj5WNQLhTwMli5wOTDUbYU8GVQ2TaND5hPAZ8CPgV8Ckw0BXj6gwZsMeOphuXmWveVuG0g/+pTwKeATwGfAj4FPBSgwubK9BBuAvjWgAT5ZfHyCr4SH8v2YGuXW4uPJb5+2T4FfAr4FHitUQBKnDMc/Lmj8jLC0VfiY9kYVomXUJGXIxONJQknS9m2ie11ssD9moST0naSB/Zznhs0qfnpNdAOk4GN/IVtY9JK/BAGOZg2Ervh6LmZHw/QL/ihrFQgJEl7MhiLL6anF5MGRY1LIDl4kAV+2ZRxkCmnQy4U1kGoApBTaeNiM0IX4ldx8xBcy+BzNraDlDr6V96q7D2/N+8BK1MJ2oGv7Dt7ZQLvfSZDmdwBOOBG9AhmEA2gbk98uTpVjl+qGA7VgFQKfES89LvcDo7DKWJC0iq/mHYh8JavDG/xJfu9MxSxfDkhgBZfKWVvEj/2c/IVsRhdYAl2OIZ5dpWDoMsI6eEr8dG1xoDcKW3iBFgV35nui0goxgaLexptQJYhI9gBglQMCfySIYmE69EPwpij6UctarOrFNNPSXo4zOUJT9yQlY1HAuASTEUknKqQqhi7dQLw82iOPvyITwWeCb1ldNxOVCDtCIo1mlw4GImvGqWCUBwVwCctiUQ/Ojlw4He6XY3IZEyLthvnYIyK7EoDKS9NCVcEHBuQGCf+4viiOOAOptEeDCpsmd6Th/Tw4sZ04x1cUgIuY9niwh5XKdXAoyY6RVLJsKTj4KmghZ2A2/SKhEJt3443CoPVZ77pHsN36mMShQYJpsBTaMyAg+vgeQd7Oz7vVCYB1mAgLNF0VBL9aId+iq5OmFdoF/BVAN8pnWg2KpYaAfBUEG0RDtShF6O/pPvRZyivTGAvIkcVH5i6Fz+0dDABPq2DkVAh4ajL2MUXhZS+Eh8WuYpNbARGGiPmeNd+qPC9aC5HMBZbhDcdPp0TSEUhpMKSildKPNEm/fFG6e05AOEFJqCwVT1RgAmc194iJ/I+DYHU1z9Fohg2dbR1SjQZlxg6RyDYATwAbLLG6eCZjjKR8Cpt9Q+IrL2VdFaCo1WrJBqJS2d3BMZVG2RtErCji3t6NVoPyZl+fANBUDBYtQuPUVsKDQ3DNEQAru1dUamMxiXVVyW9IRpTVCXMRL5lHreAnHs8jnPIQMI7+0TDsFH6u8PS3b1NunvnSDzaJwk1Dp00qgTJU7n4jDMCQ1YXkJ5Eg4SDXdLe1gq+agJuGLGFe8BHFt8hC5mwBIEUjXKOMGkgNkplrFkS8YSkIs3SSxuXhlVowsAbXsUkdwqeT/BWPNEt8VSd9PUeQP+mEh5pcGQBjIM0lHllZCEU+JwMKw9TVGDAMFnsoZESbHzzcSSuI0uOKuNBefrxG2Vf8xPaWIUgCeiXryjn87ceugNGR2EJJoPSHW6Q9tgsiUKR1/dug6CFEtd/yJvTMagPtUQwYgH1XgikQeMHEyP5McguLgVA45FZ0h6cLzXhVyXd2yS1ISjxQDcAhpBNVqsSp0LMF4qpI1++fHGD4eJNb0ZHrNn+cAvll8Dob39ojdTHXpZw925JhpMwSvC1I3RQC6f2sEG6mU3nrW8k915cUD28AgCRhfOHl3px4CBvaHCUeGeoQTprFkhDfK/UJGEcQtHRmwB/EjI6iVGGqcNbk1MOLwWiPSlKcku8WFnaUWislr0u0Fsj/YEaaQ1WS2Utxkxd2yQChaHJmUXxIC4WeUaWR7CkM00VkM7gdOkLLpBYolMa0nvgtYJhGOp1cS4PqPNDAZWn/JOIh6UnXi2dDculOtwi1X2vSqg7JXHOeVg7OH8R5RPLhoH3M5GaIq21iyQYbJPavh0YTtHQNWHYshVl8oto7JxpuCgOO/R0aZxxHPhzii3SXF3GzY7OffJH4rkUGfUzKc+5LLpKYK2l22X5/KUyrXGWU/LAlgk6yjsQHIQdKGxhEbama+Tp3f1y0Nx6mRnYY1yfGImT1wrm58tShoEomNKLrCcNKdwTnCVPbk/J4plzoAD7pIKGTKAL5UDApqpBNxZWQNgWWU9RKBfCJTezpnOsJFczBuBlqZS7N0fl8FULpC50AP0SUylwSwcSBkjqGWNkFcalWBByQcp9VrA8kUbZeSJ4C2WQHSIAMAi+qpPHdyVk7dIVMiOMdlAFDpiBj9sONqu2TXYp4/5EwjpKXCkLHJLxWulLsX+0yYKFU2VmdLUEE1bYMj3xYWqLyLhDnbdCfhnLsBQ4QWVBAO1RLU+80imr56+SKaF9EoYBn7FG8hYzgZG59CTPpHVKow98dd+WXlm9ZKVMSc2TWLAKYgzpBxF1E4hI3qrTmDJLp6fKfTviMnWqyKLK5RJLW74yWRxWzJs/N5LTIml4uyj3n3zyMQnA2IF7YsAgLDdfoWdfiReizAjjzVIUKlUI/EAcfbIHcjMsFRV1Tok53IvGc4W4e5NTufYRvsT8az9GqckKfNe2USLRXsTE8YwE7P+DGQGeInO7nOdVUbcZMFkSf/kFo9aTSeyWnQ5G4Jqqlj7MIUfCIamrQsokRnyIxw2KqzFFFhiJuwU5N1pPbmSRz9ngWTx45Rv7Y2He+0wbBiBsE0geCkV11JfCHBcmPSQQzi7Z5Gc5Q4TcbEMkz3qdS4gBZUF4qHLOyoW4sFQlZ4DmXRIOYQQbxXvOW7rtmlNQzmN2aTlPw0mbk7XQo0XTwOekgkBMR2qhtBvhuk1BgVRKJNIHfLwiDjnzSVtbYKEKxyUeQDhw8BKWWunt7pYY5vdjoYSEuKyGBtVgsJLWY0DvwdEHQLmGEeQe11pIqhZTAlPgQn9FAvD0VFUl1NGmnVvTDIbM4LWO11vaq/TyxNNV4KtuicZqJVaBNSRQ4hlf29DQeJuFfTAOr2MEax10IWaSci/HjTp0kW4KL4e7kf7NaCnAsRcEvY4uoZTICUFcGcdeqLzrKALMd+sj3pgBube5M3CktaNAxaEfJ6Gs42h0rpTkPyyaNCGjWzIZx+CO6JgAWF2hiMj8oNvE7pVGZwJpU4o78rFA5rU/3LpVuLk8N0XW48lR8DaDi5NE8cngYuBAhZrQVkwlb0IKc67QGVB3cHfiNa9M5R4J4WSxOW0+91rwhZtiZDcFyiU+2bQFxMA5gWF7CkYU5yuTuhgsBW6FIvcO711cChReIHpkCBTOZUHi2gpWqc/8AzzofdDdG+CxlPa5TFsVLHGc4C5YP3Fgozhw6CQGwE6iBSg1klhbEwIuJk126+WWWWhKLjfd6J5JU0fY2P5Cg8/S0cZRMOE+iV+CS7y1v2PtAhKOao3Q6IAfdm7K2RT4C7P62h6U7uQzldyUwUDNol6ocG+rkVVT1A3aoChNMzv0LFTAIPG+Eh+EOCN6pa3FFmaj8Geb19uMnjh18RllnEmbr2aWiXQcbWseXNApyAGI1sBS3OrcInKF2MiZxS3Sqc+p1I0u9obw6k/JY2HG1YLGKHZ6DXjICrn4ZL3MeWDe3Px5knijNLmTx9k6Znpp/rLUOw1k0mwLws8rQUTPdkpBX2W3Jz42xlaIOIvmgHc2zQivbrnZ+QdEEySCgav358KVCzKLyxeXXU0Jnggpf6ysQIWI1lTOa/IUvOoGD4WAbydHIOxZQTsI+QqxfAe+0iR550hsTipSD86qHXILtmlHcWWRXEzrdljc5lbDZwd2bRM8DjdYTKyS1OfceoZb6AjSaxuQ7raPuzC4N8Mula3JclXMsdyRFwWvjR9KTAG2BrmXI3AWbVuHTG+GzNod8Q42Kl6HoNCQhlaZR/AzpzfoyF7L4gwaArKwZJNVKzIPqkGcqj3pDCxOBC8lC4SdwBiAVH8BBsKWGxwoDeBOCqZjvKZ3hQ6fWBLfGPWHG62GV8XfzcSYAkErzAdJvvRIjKTuYil1byCC2fkrUBbbkqjzj4KPhJzzyhrBKg5U6h5ckIUrjk25eIAb21SEy2iDwkp8suvTaEM9twamIKUZzEI2Ptkfc/BHyE0wpODf7OBwZXbkaJ50lMICAKEHDxNjCrYwKZQAibKQ6RUP5FcOgsGL7AOCjTL9ylB+IFYDso0swqnMjN5sk1uqmyJVqJOX9JHUNPcaT95iPBHJh4wpwnmHHBY5zVVqrFg44UC5zq1xp1t8WF823zkuBIXSZMm8t6DnuzKtouy8NCXnS1lEHEFmMlxdMaPZLNz5y9C3kNEuUVkIcM/u35m8BjNC7pkmVUQyaXgX1JG4FqWkzH47vCdfiQ+PXgNS51vcT8ajC0abkUwDcUI3K5nZxlHCkB8S+BcMYuW5kUCIyWUqpEJZFACJQARTx1jPmDoALqjUDYI8KMB0EhaInyP8yKgu7zAa+YJRzL1w7lmD9cE7jyO9aCXEBFgCFHUnIy4jSDIF20GEYpjsl8ogts/EsFUOxkxUsDJdpRwopFY+laGhEaNTKJDCnJar44hAwWYFQqaG3DsqTotv7ruBz4SdI2odOYOOIZyTbAKNrYHpTQzSYZFKPF2PH2AP9KODoj2RwWTB/BebCIkjUNrajnjW9z1wWas5zvdMMVQoCER2xhBcf339EopynXCmXGNa8dmWQ5rGwYHgizC2MCbbMcBKog0xd4kkCeQ2DhFO3bDVTF5iph4hp2jldLQZccqUnQ1S8U8olDxsqjLtDnx6+zm/zbnDnB7iVJmGUAxEwtKb7MOcfqeEwzhrAOlTOEuBe98Nxhn4WLzlKy2zDzyIMlS4msSMLklIY28+60tgHzDrDJJWiDB9xPAJ24bnPHBKhu7zRBJpUt3IF5d+8EsAk6dBuNRD2nnygIV8ujaDnjqkCXCdDNPq1AgR4o8X52qehvmXWNifudOBiS5+dOJRPHmZq6/ZX7lqJwTYuc6zO4C90FjsG8LKbis3mUshsp0dEXwXBB4pbEuLsA86RVsUhgm0Sc5KWA4CTSLt67gPsiGceGOMaBLnD1OiLcAXfeD/ikrwYJiw8YwOLt5jcHjLNKYioz0F+IQghPW8dbuY1Et6vDcr1LUILWmkf3wlPlLKFcpnGYLvych8RqfVAw5sHsQZngKTQC71oRMkmdCJt8nsVb+cw44QSkp3qAt5WrC6O4YO0oMFbjAQtHzWg36LHwPnnNXixHNFCAcVoFMH0CECENJMV6rADpcCQ1PgUwDp3BeZF3Wo3Hcqoq6iXGGgQo6n2rGaeKu09iF/uEoi6Q50d4gySDndaobOQ2uXfZsbVjhPS+GAPgTlH1LZpDTknwJhkFcDcrDjcQFwAgI3jn3roXAMzYaOik7O+TujzAZkg4jFnHigGWJpCoRUL4RUB9qgArhidZgDQJ9zJa3YLr2US7392EFrlJK64lE0RcbgQrYARg5d2d56i3qCFRHpoULmD/Q2SZCARShjsCrEB7uBXUS64+2Qx6163w+c3KBVsgxDf/UagcnCMFT4igqcQgSkU17X5G7mkdw4yKAg3vVjzUFPf1wiFTDzINTZDhY6DpA0FfUW0uP0AWnD1stkaLcEojH0lyjSQrmTGRGY18Jn25ttzqnzAAwEW6QOAABAAElEQVSFdCKB1dMwwDhKKmVAeWlU3otfN3iKWxAJiwkU9lQqwAHVxoFTHEzfhz5dUdmNDUgtWPzJ3aowylJxKBAnmwcXxrBJQ1iR2NXTLbWRSuAAnGxa4u+0+eD85ZQ9yCUJPogDB4CsSgicwBtDRAWEVaFXpHHmABZMdoHildh9Ek91SDPgr8SBL5F0N/o5+pf1TAJYrtSmYZhGWQnwbACDjQrXoMa7PDANa/4fIGpAQewNNG67EzAxIqYP6uoDm8ZJmqYhgXRxwNEfAszRNvTfCrRNH+K5eM8JBM7JSz7kpl/iE4QhFgFvhUF7NXApzJzAQZvlYxs30quvxEdKucHyaYOyB7HRMg1nW1oHz+i1cQiO3a3Ncv+jj0tXP08BUjGeVTLZ1whb9BWstI1DyLTj9KPtuysl1tuiylIPe9FOirpYOAKZiYqPJUbRmabW1MkJh6+XKRXYvlXCwI4UiMVkx7Yt8sBTT0kvOmBarWcrQbyVGVooVOgg8Xi/vLz3RRykAGWJgxQUe8AfUOlMtid7Mg/eQOql0XlqIZzffNqp2jG4eMyU6K0j937oFMxhU+1taZIHnngcMGEvO4YP6kPhKnnHIrHudq0FNE9CATbjoJe9rZukCluzIoEO6e4CDXCiHrqyk4wdGita0e8TFAg4pa6xplrOO+ZEqYBAV0UCCIYllLRkh6MAPFmObU5lQGwOtLXL3fc9gC1XOEUObzmy0/I9lhVPzUqGoLIhmNKRqdJ8IC7btwWAQ/b2GS3S+cNRLY3SEDQERxohtP85p5yCAytKK0rIzjR49rQckLvuv1c9BWlMcVAf0SghDNSEuuATz+SPJE4BDEUqJA6lv23vyzgpDLgnKCpJHSR3rvqAe9KL2g72sdRHYnLiUUdJrBqNw+TEs1QBsO3cv0/ufvZJ6QTPR8DubjMAUTVeUVcS6eL48WDGALZi9fYkZMf+F2BgYJcL+lUchp/t3wQ9N1RCiQcwHD/jpBOBT5WqSB5F6yrw3AzDfCZF2rFi/qaNf4XXI4YDm1gAgSWN2UeQAnRLw+BQswQHVKWSMWlu7ZSXt9RgxwZ6Cw5GCiB9IA5Y7ZQVcsfRVknwaDRGr2RQGiqr5KQjjoCDCDtxbO8kAPkQR3RRgaQgiCi/qb1N/vrAg1DkgFXLZOG5AXHASY17eEHb0C1qpjRIZXc7+rMdiTNz5keJpIfZgCxU4tOr62TDYetwxc4Jp3jKdBABNOI/E3hVMJzn4VxK2/OGU/NrOi2bC82i3GGbjuLVNhkOCYGCVasbW6x2d3TIsrWr8JU7NgfTW6bArQbkpXJEPF3q0zCyZqpYejbkGN6pwKHyM2zAWlIQBil0JnQP6WrqkF1NYLw6KPDC8llrGu4fCkKOXHsglbowapqxYK5EwLjo5SiqAFsiUzb7EmL8nOQQqyYvFAVFnHnRL51te+TAzr16WASPD6XwdTPxdkAoUP+AdKYUlteLdtnT3i7Llh8ChVCFJkT9HKVB2BuXciYzq08BzwYo+xjShBNdgLZfGmBopTBSNW1pmicWhxJHp+ZK3Xac9vTSc0+jKVISjsBYgHshRo01gqAyGvmUu1AER3Ostxcjmv1dXbL04OV4ZwwjKtwg+C1DM7rOoRxoUAViMm1xFDoNLlucAghsWZAbwE6meTiK5EgJb/p6e6V5zx4giNXTMHpUiLs5Rn5DnJSvUGQfGiWO7XoLly5BvTRAjegz5hXNE/yAs9IBbUUDkT+mYzCjcHOvEfqHyDAvBDQUPr1Uu158RQKV8J6QPJTPTl8qhTLX45DhGWnu7pRZi+fjiFscnZzGaJnGLmCl7iPEijNw4e4TrpVhCKE90mEoPvZztKMxDJnaBuJm8BEowpef2SwJ0CsOv3sAhqP+Uzlk04/iCjnTBZ7a0dMmaw5ZD6WLPq6KGLARCQRylNGUGIXCoIji/WJAQfZORWDAgtdJjzBgC4FHLZktVHEcldvV2SGt+1swegfnhmCqo31cjFmN+2BzFXFFHqUUrv3omumqSmmFQbVg5VIQ2VGDSqdM4eQt0p0xSfTnPnh22K9jKns4JUK6e9OjXDwm4YlIY1qtr6NLdu/aL72YRtGiDYmygGXu0TaPA31WucN6oIuQP6tAmNl7z+di0jDd6ymw8Tii4DgpGQ5K48x5mG/hKIASiZ01wxykC+e4TJ4wDAB0HjAPZirBZLSC2cFtG/CeggDtghOeBKOqymiLdLRAiVOAY+7PSCpNVoI/EISom0quD9w4bcECqahqRIxR4hYLnfsFBuzrujWInKvca1JQgFlmBgUAN/HJgJcK9kh1Q0T2bNsBdCnKtEsyYSZRCe445RCpqJKZ8+ZDgGC/OpS0Hh8J/JJU6DmBCjIOqzyGhWmhOIQtnWkQPHD8OvgYoRaFAq+Asqd3JJhslf5nH9dm4EiJUwQUtiMKjmAgZNry+JOA4ksCXlgIMnfxMsh2GCFQHCHgEoQBaGmGVkMebJwBryTBUxxxBAif11XoAMV2U+wpeOk5gXLpONAs23fs1JYYEewFMjko6VtOMyVh6FRPbZTainlgEtMGBnYkoSAF7cg7XIeCCDWUNJ7DXcZlhr36nmnSwJPYJ/uwIqO3W7a/+KrO25KGWoOWi4dRB9aCgPYIwXW7YPESeF/w3YAk9h1jzp7Qh0B4Gkk8yTBBBaO84Bjl6uunUiAuKIuIEk03IKODXzTcL5ueeZYcyEI8yfDgeXKzDvcGtGTfTcNIrayvh5u8AfVEHXhNYUo20xh6ylwUVfPIBHVNo4/0QgZR70cSmBogkFnB4Nje1iKb9zarUcNWIiu7SbNwz8o85IPKHhYF+HqhwPsguRpnLgCLWDVoeMsWxJM01eNEyw59p1sHH2gXIKnmoiKrreu2gcqxIFxuoR7pqmyVA3sPYDoIJ+1Fsz2gJBFx4hoHlsB8qGVEwUI/osw2kx424kCQq8CZpq+vT2JwufbDUoyAkZkmV/Hbsl4XV7QaCc+jFNMY9dAgr8LJRhG4n9KcWEbgKUHeYJbGGaswAIXAYGhNwg9sfo4ak+hsgUCl9ENIRfppGZdagRMKiBy6ltCmgSisVcwHR2DqhthTwZkUTgyKFe5drHIU4kAMDB2YlwIb37OAuxQHkUAIBCAAorCe1X5hghIGjl7C6LABnLqGmXdVejxhzkhiwkSELGwQQ3hkSoUlwFNS8AM5eOCLCfC6sKcSXxAjCIXU092MxT5hzJ9DsLO/MymLtMU6OYu5uPQkbR3QjMs/hcN0sFIBzBWCSzKNOUgMhQCVzcHE4CfyCK5hIML5uxCOmIRDvSAwaAn8o5qAGxLeBxoACjeLZZGjDqA5y8AIKAy6hDAqTbCfgF5J8BQ/dOIGlYTkC0tr84YL/Y0Hh8KWQHnyuJnJnjA/UW4/Dujh2gFdgKZljaAhPOUOvAUM/A/ewjQswKFAj8L7wQkhwKrVQSYSahcVPFF7sT1cJWNKzo+NSGffbu0fxIM0sE1D5e9ayKaIkf1le4A3KgDTlHAt+JY8hbltPazEQMX1OURW9RtrAXIUV2wPvopBDpk1B+gnyKIyTNuURAADYuFbJAFpgFuWRM9VmJ4JPiCJoRXuRxJABkJJXg+Dd+OQI5U4kCaE7x8UCpQ9ugANCWrdRIR1oMTia5VVGLGnE/iATT8OfupLSXUQHi43r7mhJGazqGhgFIscYSiJEueikMFCCCOTFBjrda+8PUQixdiwbEhjavKlbeqB9GSMGa0xQzFBS0dCsstYB0Jmxg+mJtQNAZslcHNAGIhhToIBj4YCqAYdGu5ejDK9NQ5IPuIIwo26VGHQCDHuWXZOI2FpsJCmTjsoPMa4cqt0kXNgznrOdH5tbeZ337sljOiGxbBDU4DmL5KVEXaHJxwAskdElm+QLG8wXMjyuQhJJTMtGBptpQwoWpUQQUagOjajcAXaRDpt4I3RF1QaGkko81PCKQB1MCF/Bq8BZdmEo7haKAbUwLrx0uLpPLo1WVgGx8BN7txwPG/WKyh5hpc5t7BBngGdSzsms1iywdAzPdqW3YlviQ91cWG4jKZmv9YRrZOUWbQAvRn9H5W5RRZj4S4yOfBDKxMNGGAO6wJve5ddim337NjhP41aiXsVcxzuRCprjrq9jRgOm2o4ErfHIHrfDx/s124Otb5djiULOSFj2tqYPFftIjnx7Dosx1NWTorRPZp5SM6SGje5La3E9VFgqKLgPPkYBdRBl6zqcF6JU24H1MqtOKLLE5SFkTpY0DRIwBWrZushRr/o5CrUOdoqVRiqKLpm6SZQKcPE3gy5z4WAAtTUkEQKPEmPms4u41raPs32JgykNX+lD1qqR74WS4FSQGKrZZ2kodKzFAUrrVjqGPQTNjmLZlCLg3Id9XAQpwqdU3zsMfhH7wn+cZGaCUY2mSdzb/iFlGBPMwXzo0ccfWexplNCqS4WhVKVp9hkFUp60Pg3mAG9MQ2WwqOqxHZeKusvfvGL0oGFWt7QjoVC73rXu2QPF8F4kKXCH2mgwWDn2odTBuvUTjOcTCVLawQg5R+D5dUBbTwgAond3qNZi/xjic1rvkKLLGaIZAoakKHK0zBIVZRXIwlaOvKqyqBfzpl2GElZw8pjG4uZMDxIw5UoSbgCcTY3v7aW/cMcegJON/70HfYqY3WuYJqEn/xMwQihoUOXo+6jVXoRqRESJQ8i5Cla+AODicTaZ7yiMmc/4L0J6gW1D0VfKabHJ7Ae29/ttVQ1a9k0qtDWKhtK2B6FYOTiLgpf/th/bPfOJ5vyxRUqd0zjrTixlahRTRlOXgIOHD47PE1ajmSrnlbh1MMyzKDGVjj211LSmusuuO6JwxxvR2GvKSVeox6Jk6xWiV911VWyceNG6ezsxGH3VfLCCy9IL1aw0p3+8ssvy3//93/L29/+dn2urKyUBVgE1dzcLJ/4xCdk+/btpgOhPBLyk5/8pPzrv/6rtLS0aMsxjlYdDYWf//zncuyxx0p1dbWO/D/4wQ/KzTffjNWSjptQc2T+2Pl4wvm1r31NLr30UrcuC3smdfF33ga399aiVDsYc17KiBi5hJwRF9/ralVUoyMz4MW81nK1tQeZF/hSuCYUr4BEsfCtHwsy7L5X+wlTk4fl2NzOVa1jj52mI7DBR405JeR5NPDaF3jCxA4scHQ8dlrMwOJq8KbBpv0RSahY1CjHNYG52hAX9eCec5FRbI3Jnde05Q92za+sBssx8B1p7/IAOhxHlVxhy3llDjh5te1lOqJpFx48wrZgSPOUDcU1097IhDfEkYqS5bEw3tLUMSNyPGkypREfRhNQCIvPKsv7QDyAa3dPXKprq9BXOCJXFaJAWIcARTKz2d9gIDEtK9U9vuhbExVsP0iClyKYZklgrlOhAYAe7s8Cj7SiDgJZJiBY6rJy7FBGJ+dBM/qEyWzO1VZgHYMV9Bx49GM/V4SHNQ0SSAduz6TcUJ7WahwKjKJ5lFbIr/1VCcYYp0Be8MgLPVIp7AVPYLdKFbaIdfdgftvZhz0I2PqKawGUn1Q8aQ9BmSgYlbJe206s2Qa339qInKuVyTbalsFZIDWiUTANalWyqI3lBSHIrPFBOYVI/Mf6G7SB8TJHdbsmy8zAQr2jklDjlCSojGdmcEEidxCZcXkhbrQQjuxaEiVuq77yyivlLW95i0xpmCJbt26Vd77znSo46urqlABUtLfeeqsucKNi/d3vfifTpk2Tj3zkI/LII4/IT3/6U/nWt76lxR133HFy9113Q7gnVXGzQTiiP/PMM2XFihVqJDAhCU9i/9M//ZNcdtllFpSsK5U/F9e9//3v17RZgjsrZWkfHDb3FIoYZQpzVcVGTshJyH3fupgHPESFSCHJNPQ+GPcUGSbDQqaCnELcWhnPtPxpN3HflOQGxeoebjAt9x3rAS0OQlkQ4YGKmh0pzPlsXIlWBEZZAgrFCuLBYKKhww+OaOdkAaUOCjDLzfwYZUdJrI6ChYfb9ELQmi1CwAeL1YiQrtxF2xncNCezKDW0xVCQTiOjeLaxwQfL4lidShgFQPOM5I8Wg4zWuOGzN9CADML4iPfjCBRH0BsyjrBe4JMrKL31lfYeFAT/eIOeGscIgE84eMIeFYhtF2/a3HttHUswvOTuCu1niLM4DaUkcsss/tn0Xi7hM3WhUnoCcKGiiOL0PGOsm3YhHNEYFkuZxiq+Gk05wrYtWIuBncaH4Wy2ieH5FFaw8RCTaDSqJ+wVq8BtVdq38MD+xp8aMbQu84/NbLaSXUnfFHaQJCBjVKGzbgTGk6fYZ/p54BCugwXtykhgDlmyCjw7B/tiqUJJlDgVJEfSL730kvz7v/+7bLx3oz6zMX/wgx/IqlWr3FEyifPwww/Ll7/8ZY2jgj/llFPkxRdfVOV89tln60id6f72t7/JZz/7WR1lc9TNUTuZfN68eUpIy9TdXd2a//bbb3fpwnR8zx+VPEf+TU1NymAcsdt5ejfDeN2w7fijAHGC51ZjqND6evvQce3aApMpwztY8QkcQhz+arAl5Ht24ixnOTlGfjGwZAwCegvMKluWadmb1ekPcWGsgOZBDgz0ylBx92N/Lq1htJK2xYCROHuxSyRbZ744LbZkf7iqXzsfXWHQhhQspC47XRsOiKiprpEYRhf9ODY2BAs9Dt6iZyRWUYFV573a+Y3UsTDngsZ4J6BgeiCpdD2x9m3Jrlo2KmJd7G/9ONWLfaYCfYJ9t6amRvuJjmKxorYoYACzCloSZ6ICLCK2Cw8LIj9R3tDDEMWebHoA2XCMKxSUVz3wj2Ub5MKgsgv8z35chVF3ypkejIK3enp6YGxhVT7ec1TIETjlGWXi4AEYOXPTmZ44eI6h3pI89kf+4c+QjLA48OASQp/u6+X2SuyCgVaJYStjCP2esre7uwuyzOxKylcfFxdyzzW9Xtyuip6Hok35Tg35spU8jvTlL8WzECBsE1DYMRhPPCiJUoCGdxiDKnpOBmsLA7PpbxSCuMvQyoGa6HlYb1S4lESJ0+L69Kc/Leeff74y4Oc+9zm56KKLtAGfe+45OXDggAoJEoajyVdeeUWZl4zJwAVv9913n7rIKeT5Y+M/88wzKnQoZBh27NihI3BVzBA2IYyASMxqnH71xBNPqBtfE+KPVeC8sjyGhQsXyqxZs4a0pDTxOPyhkmPQTsJG9XBsCFup9u3Zi+mJ++WOW2+Xj33iYzJnzmz56f/7KYRvTC77B3odbAbLDjnP3gK1plL9MXOqpn6wkFqsbEswLECxUPDK326shbjz9jvlzlvulH/6zCdk3vy58oN//6GOfL5wxefBE9xmZ9pIIUQZKuTU/U/cKJxsqaxg7E1z1kp8KEzSsM4pYHgS2LW3XSu3XHezfO7zn5UZs2bLT374E6RJyz9+8h+R1IOD5jd/tCxToBNrcLH0sZh5sozslgVR/jm5rcA1ygp4qHHYK/v375cHcZrb9X+6Xv7hUx+XufPmym9++RucENYjn/znT+lI0C2kACRaZoF34xXd3NQs98Bb99c7/yoXXHyBHLzyYPnVz38lu3fvliu+/CWcyw8BDN5iIE2ymkBjzR9Lp4IJPGlLdsuOgv+kY8uBFrnzz7fLnbfeIe89/71y2OGHyc//6xfab772na9plYMpjYEwEVvLBQPfDjdGu14WAcFkJCY1kd5gwyHOtu/pjst99/9VrvrtlXLxRy6Ww3Hi2ve//R+ya8dO+d5/fgceqzzqBuXQUM7AqxGIKR38w8GXfZzTwX+7Z6P8+cY/y3vOf4+ciBPwvvG1b0pHa7t84cv/Nui0hkJNFGCYmKk4g8lYYpOHqsNB2aSlULjnnnvk2WefVZf4unXr5MQTT5Tvf//7On9N658jXzs65v0hhxyiCpnKetu2bXL//ffL7NmzhfPqDQ0Nmv/xxx+Xww47TJUulT/T8R1DP47Lq4qa/X0sgwvnOGrfsX2HumFoMJDx+eO91g3LvQHH5jFQSfCdvWrkOP+xDctOYq1cxvEXgvVdjwMuNhy7QX79X7+S+zbeR86Q9UccrqM+60kgXag7OCLRPpWFgy0tK3J0D+xvFD04lUghxYItG2xtlE/Wpcs0dbV18sZTT5X//cXv5JabbpVp06fK8SceBwu9B0YfDkJA+hTm/Dg/XoPjCTknaObV2RsghHnAvFKFNSkAnmfGjV2ggFEeQRUN4OPjMc3zi5/8Qm65/hapqa+VN5xyEoTwAYxEYFBiPQB5kbzGfeD0lKhFD8vdsVddQC2NjIJFNIlX4kCe0nItyfBAF+6U2no5DmtKrr7yarkNgmr23Nly+LrDlO5MQbcoXdWcWyYusQoszssNKNO1q3LfjeWzgwv5vbq6CvR/A9oC03TA47lnNsmyJUtkFWRLDOssUjD0ozQOQYcE+kk/RukRxJdLYPPQK1UJj9tJJ58II/d2ue2G22X3zp2y9tA1svSgpdKLw2h4Dgc9QEm4eek54aCHzxwdMpAW/K8/jRnjP6xLA2+MK527jiorIyqv//i738pNf/qzPL/5ZXnTOWfL0888CXmN7yuA/hXgJcpdekroZQhjAMhpEOOpA0Y6ZWY8dE4l43QxBKT3MwrD77jjj5erf3+tXPPHazF43Cknv+EkOYAjgDkap/eE/ET1HGa/ZyfWjmxA5e3YDzMyZMlI4EzcsO4o4BobG+W6667TDn/hhRfq/DSFFxe3feELX5Al6FicA2daEsDOlVC58/mGG26QV199VUfjNAT27dsnN1x/g2zevFnOOeccXSBHpUV3PcvhgjkaAWQGG3jf2dGpC+d6ens02qugec/AeXjOqdvRuUZOyB9HGjl1W0VO5cc3FPJ0rS1ZslRWrFkhV/36d/LtH35LVq1eDfrhoBDQg8bTTTfcpGeQf+iSD+l17FEBzUlLAjiE5FDhgjTkgwg6+bHHbYCwvVW+/M0rZN26Q6US8Z04YvGaP14jt9zwZ6wDiMtnPvsZOeKoI8FLqIcjbo7GJ0RbZCjJuTkqP3p+6Mk56ugj5IbrbpIvf+1LMKrWQ1Hz4Iik3HTjTXLj9TdK0+4m+cb3v4mjW5eqEudI3hvItdbIyXCwN0Vp7i3ZOOduxqMoF21XEauQmqpqWX7wMvkLPCSX/+vlcvLJJyE+Ku2d+JocXLlJCKlf/uwXMnv+HDn73LNdgBQTAo0bLX8sEXBrzdzY6vh1KOJRAXlAhXczFLniAWEbhuLm/HkTRuqXf+qfcYxnlzTAIP705z4tCxYtyhQ2wXdKRuDBhZ1TpjTKCngSbrrmFjnxjcfLaaefCs84F7klcH5eXDbDo3nNNdfK8oOWy2lnnAbyG+PSouCVhTZuvK7az8EPVMjTp8+Q4044QX6Bgcdxp54gK1etlDWHrlLD47JL/166O/hlNqh+GOyf+PQ/ytHHHIU+PlDtqXgZLwTcetCPocBra2v1d/KpJ8tPfvJTOfct58gxx2yQbhhUXLB33bXX63QxDfYpjVPkXe95J6SckXZuUeN4M2olbpXnMcccI1Tg73vf+3QOnHPk3GrGleBUmLS8OK9NVwWVNwn129/+VpX4L3/5Sx1hf+pTnwIzTxFeD7QeUCX9s5/9TP7rv/7Ltd5Y1qkY1VHp63wXOIKWKcurgmX+y1/90lXQHEWQYyiEaSwwL13qtACTELrsCIPNmY1tO5CVM0Gf0Kt5ZecOQMoT7q6udlmzdrU88+jTMh9HgXJun2dWc96G5xhvwuijoaE+y6DJlDoWdwqdp2CPCerGOmmcoSDnvqOY91u9do3cv/EBNeoqK6v1owebnt2k82lf/85XoQRvls9+/F/kxruul1i0Fja+Wf2tRFGquBWM601u9+TOiFtvuUMOWb1KjUrOYb6KKaJ6eHn+40c/lKv/+Cf57re+Kz/66Y+UN3XpvmNEegF37SCwqWl079vS3XtbKBXHyBrClm7DNWtWy/133S9rV60x/IQ5fUwwQ88nZQvwufGaG+V9F71/ICBgUm+ZAxOMQwxYjFyWQr9eMH+BTscsXrwIcVxYFZO2tla5Gfz0/g+8X+XCtOnTZBH6Ptde0PiwK5DHAdIhq2Cf50mEhx16qFz7hxtk/eGHa/voaA7enEcefkR+8L0fype+coUsXrJY58u5Wt0sqERmNAZHsHAEjVkgr2qvJrB5AqOTUGqUWwsXL1RleMopp0LmRvChlD65+aab5Ly/e4ssX4az/MFf3/rat2TW7JnQC/i8ZyVP4+MCMOCBfhIkLnn6S55qSx5FzwgNwH4YsSsOPkgqsSNo0eIl0tnVI41Tp6jy/vNNf4Zb/QuQUVH5wue+oIOThYsWZmApQKNMgtLejVqJExy627iy/LHHHpNly5bpqnRu++JovB5n7PLdJZdcIn/4wx/kYx/7mFxxxRXymc98Rl2P3ELGkTFH83QNU9HSMJg6darceOONii3jrEuchgHd9TQGptRPURcgV63TQPjwhz+sI1Smt9rQjsCp0KnIef3GN76hxoIq+dLSc+jS3L2VhZNadyZduTRS6Z3Y07JbR961dTVQeljdjX8zZ86EJdioX2qi4B2/wO5mg/feG6ddXoWqPdFv4z33Qri26wipAcZaJRaDsZ3Xr1+v+LzlbX8nf7rqGhUAEZ65CSPGBF7HuWdYVIgB4aCiRaDSuPfee+GISKsBdSLcoFyzMXfuXLg/D1ajkIbhmW86U0cb5GUVsCb7OP+lww/BIR1X3dbgSEi6yWnEPv3k07pYj3PL02fP0r7Bb5B3tnfIXX/5K0ZRKzRtLtBaHAQtHWFUmhMxaqIi5micHhJ66DjC2wm358KFCxRmLgy76rdXSU1Fjbz1vW+VI48+EvHoI4gvx9B6oFUexg6dUCSI9T1Pyllnn6UjP3oRvvLZr8i/fO1foPRmqXzTNSRwQWu7gg5ej+NY4KY8hIKtIrdepNy6uAAvnuhRedUb75FXtrwsi6EAG6c2yJvOfpPyHNeN7N+/Vwckc9BniARXfPNoVSp3ts5E9XTiw+289OSQt+++6y4cWd0vu3buluXLD9I1IzXQM9u2bpMXn39BqLi5oK8Ga7IsjViG957PYx1KwtFUsD/84Q91voYjZCpTjrw5qqZA4yEvfN6yZYsucuMonQqV4fB1h8t3v/1dvecokwzJd1xJzsVqVGC8PoXPXD799NM68mFZdfi0JueIuGKYhgD3nC9evFgVG0f6V/7mSk1LRUdFMX/+fCwMm6NpmJ/1cDWuVfIKQAn/UOZz/gR/wJQD2XJgjFM58cdq2wRGSlTmf/jd7+GueYfMwwdSHkUnpwt9797doCsMGwgkukCpJBLcq6yaxtE2JcRluEWp0oKUVaMJ+CTwZaKr4TJ/+7veJjRCnoKQ6oIRxvUL8xfM14UiUAW6+2Dl6pU6T8h2oUVsthWBV0AwKkT+tIcNF6hB0g/kgQwNrfFII5EShtM8Z7zpdJk1ZxbWaGyV/fv2yiOPPipV6Mhs7yt/9Sv5j29+HyOmRTA8TYfm3lP1GBJ0wGFQCMBGGcvuPpDDOPfIxUV00f72yt/KW976FpmNxZIPPviQ7IEC3LN9FwRVn/z6V7+Rc9/8ZqDLUQm4CufI9/diDhAH7PCZPG0C28O5HacLa+a8JQP3+F577bVyFFyyXCz5LD7+sQ/9gztd6Gn44v/9Nzn3HefKj37wI/nsZz6nc7LM5xodmWZmNMKACBNd6r9AIoU+q0YqDUT8HnvscTkIX5xbftASeeapTSrTXnj+edm9Y5e0dbTLow89Jt/4ytflA+8+X7rwdSyeQ0EDxnstNZhueba53YiBN+TxHqxx+csdf5FFGIkvWbhErr/6OvBKCkpwJ/p0DB6RasitCBYi3iWHrsdaJyh07V+Q92xLG9RYQJ25rFUEGLaIYV/74CpPYc6egobemo1/u1c2bNgg8xbPlScefxRezw55FfqLU8GXXnapfPXfvirf+Oo3hdOYjY3Thl1fKTOUZCROIcjtXRR0RJKLLy6//HI58sgjdcEbF7hR+Xzzm9/UFebf/va3dc83hTwVKfdAUjizQekapzK/8847hW52zv0ynvMPHPFwyxrfB/HlL+Zn+r179+ronIvpWA7LX7lypXz961/XvHfffbdufaNHgApdR/Zgf3KJFeCqHIZJWeYZkN/lNN7kU9+IpuRz02UqVaYFB3ObzNf+77ekv7tPjjh6vaw7/FDMix8k12FOjNs13vHudyo9KExtDZyXBTnKIihd0Ce78O3h//zef8IV1YX2OFg2vO2t6jK86ldX6Wj8/AvPR/uYc/W5gOcXmIPlPDONE9LVHmrj6gw0GGlk6JSfhiMmANtEGSK7BAoXrnD++Mc+rrWvOXS1HIpFYHS1/e7Xv4eBuls+dOkl2vGrYtWY/1sjH77sYvnEZR+X6265DkYLPsuKA19IE4Ve66HtjPr0P/7oI+sfg8AhqxPoefr7D/+9VNZWKF+thjt93eHr5Nprrpc2jAQvvOgCeeShh2XtmrUybza2caKPsX+yn5m9/eA28CeFrPI9iyY+mSpsVWN3RV10vX71iq9CmXXKqjWr5Myjj5K777xbbr7uFpU9F1x8gW6fW7f+cLTHWp1H/tbXvy17ICdozDNYkAd2Q/tGk43NH1RBXqCxS7dyMwYshxyyUj7wgfNl86bnsTL6HriguVPgk3LN1der2/mSSz+itP7Hj/6jXPuna+TDl1ysxpg1PEzPKD24lhoD6ZSpizLoK1/8snTs65AlqxfLJZddIHt27ZWrrvyjyqd/+MRl6gWJ8sNCsGaffOxJ+dg/Xeb0cSwHZX9Hcdo1eMUDu4SHdY28tMBkqi7ZHUfTXEv14x/8FC7zHdjpsEIu/NCF8LrdJzdhvUVL0wH56D98VL8EeQCDxjPOPVM23r1RrvzFr+WzX7hcF1mWDJhhFlQSJW4Xrf3xj39UZU6BxdEzlSld7F/96lfVnf7j//djuQQCj3vEuQ3NqwDpSv/xj3+scTQCeGjMO97xDlf40Tjg6kaO5qnEKViYn3VyBTvd9lT0d9xxh/z617+W66+/Xt2DpMcR2OpAQ4Anw9FjwLR2e5oKV8s9wyTe6JJnLE9bjjIy/hCmVRiRVmPx0Yknn6BK/ZKPfggG0b1yxlmn69xMEqNbWoxq0aOAXp6OhNG5G7QwdPExZHy3rpwbKl3OOcaw8OiwI9dhX3I/3GlnaXtc8KEL5P777pfT3nSGHgoUxWKxVsxfXger/dL/c4nU1tTq/KYaxTnlTsQjFTjd6cefdLz0YF7s9DNP0wVVF19ykXB6gG5z7hHnfGA8HZfFixfpXPPvf/sHTB206ejDuHDZIBMboDbkDWecgh0B3XLueW+G8AzLO+DlOQSLj4477lgYyXXypz/8CYYxFrX9zy9k+7bt8vRTz+j49N3vfTdGS8awUg8TUDGGyfjhROMu3sfDNgKy/sj1utf9TPAR5yY/ePEHZfHSxXISFrZNnzFDjV0a69FwhS4+nNE4UxW8lTlgRqMtxg/8rJq4pTKJdS00ojh9cfa5Zynfv+f978HWxRlm8Rq02IKF80F/TBsQl0iFzIRLvRNTB1zNTfoDiaxyx+rB1mKvth72ddKU7dHVEZc3nXeKKtyzzsZ0Et698Y1vVHmtU4AYZNBrWhGr1AWilF1cC8BBuDFwiQ73eBiTZDx7DA1cLjA8+JAVMm/BXDn1tDcqXh/GSHvWrJmQu2fI9GnTdPvi/X+7XxX3OW8+GwsnPwsP6WPYhna8Jcm4X0uixAn1ueeei5WJ03VrWDdGYHSHL126VEe9VEZU9JX4EDsZj/ckGhWr8iA4g/F0v1dAIHLUTkXN7WRU1jz9rbW1VUfv//u//6tKmIxDAfub3/xGV8MzP0fvH/3oR3VhHQ0CHg7DUTph4bw5F4LxMJrPf/7zWp/pBONOc1RIhHHJ4VIVMOBozsm89e1/pwu/uBqSlu5i0HIJ1htQMNH7EMNCMc7H9EIg81ASGjjYrOEio51N/7hR43Zjticl8V3xKjkbW0w44lDXOHBbvHSJLFm+RDsI52a7uzvkqv/9vUydNlUXuTz55FPgjaQcfviGXPKMG/zeikhv8slZbzpLF+hUwjBJYepi0eLFaI+lqtjIo1yg0wYeq8MCS67bmDnXTONoE1DSTVBbeHHhfOS5MI55sh49DPx2+qo1a9RrRYlLJf0vn/8XnbukV+2KL14hy1YehFMSz9B37K9m8w+QyeFdbz1jcc82YH/n3m+O1E4783QlKePpUl4CBT533jydLuiBV2cn9orTsF2EecsXXnhRGuc0ytz583LAhlEyFsAWUSbXVoSwPuHUN56iclDdyXBJL4Ar+sIPXaQ8R+A4xx/H8b7tMAirq+F5xHQHcaVSTGCb7XgEpZHT3rn0AvkpvOXMs84ET2CaI9iDvt0vc+bOkQ99+CJHRvUgibqbsKvjRjlyw5Hw2EYx6KD6UQ3OQhyPlLmdiA5DXnrj6acCAKLErZZJTDfNkgsuvhDGBg+owjfI8euH3OLUwFx4dbiIj55Tb3fw3mthY/ynJEqcyNP1zX3eVLxf+tKX9IhTbi3ij/NwHC1TIB6KFZh8z7lqjog5yqHiPu+88+S0007Tue2HHnpIV5trB4XguPrqq7G94holBRU9zz9nWRyxL168WPPxJYUMT3xjGhoUayCgeLob6+Lc/CuvvKJwclEcjQQG1lFugTBR6XGagd4Fzp3aY/9o/MSw+pYKcNvW7Rhpp7FavV/3MFbOnVUWqPDEpVCYJx71KTykMA0U2td00bLN0+gg1AS0Yu+75349z/u2vtshpMNy+ecv1/RIPuGBBhS9ClRwsUhMF92FyDP4sS3Yexn/8osv6cEWZ735TF3Z+vkvfV55jPk00YRjYrwydFFyZKdtAJiAAXgI+GE7H9XhTPRhCiuieBAW6i1cskhq6mrVmCaudKdPRLtw1Eajlf2CZGd/TkKp20Aqc68+DSqO1J/b9JwubDvhpBMAdFrnLrm3mgKY8DO9NqMtYJyvZvoLBjtHooCP0xYqi4Cnl76UXedfcD7WlFytuzpmLZglp55+iqPAiUUZBDCVmkPAIw0DPInpowiOju1D/6fHgF5U6nCu8dmL6adTTj0Zzik0ghPIiwbpDD42xqYZ66vxaAJ+4GDlr64fgYeYe+DJV4znqPy4E46DMXIDPKJTdapm/VFHqOvfQk++Gs9QMiVOhakjSUD/8Y9/XDsZkf7e976n81Bf+cpXVMHzQBa6VLj4bNrUaUoYznXzgyc2nH766W5ZLPPiiy+Wt73tbbpYZSaIyO1kjOf1O9/5jq5sZ11nnHGG/mw5udelS5bK2rVrVcEzfbkFhQlwKWjO8YkGTBNHnOlSVMWAF6TFpf+HH3NJ6RzgxODjsq5bPbs0R2z8/rYucuMb7ahIy9Ec8OCVopSH16xafYiOslhSRWWF1KNdU1xExXwDwjh3bwDhPRKWhiIhIA5sL2LKOdpDVh0il//b5QotDUcqFOLONGxDpssNA2NyU4z2GTVQ6TqBdym0A5U172lGKZUxAuSJQWyWBHAJQuhykc+7L3gP4oktF3Wzvbx4ZMrVF2P8x/ZXjpBCYUANOG0cjVzCzmca9wwn4ZQtbqHjAje6oLkYTj8kxLQGJQOx997EjMtf7csObdXDAQSUp1A7W8gGUvld73uH7N+zH4OWfjkZhwuFMCjKhEzaTNz43ikEAJQ8rm0AXqLS43omE+g1hTIE3B+48P1YhIgpAih7Y0IWCSsrGUNUDTweWFAXFbu2jRNN3PjhI57ixtM0k2izUzByj8KjYHuDvRrcMk+ekkt+a6lc0oLtqWpkSutSp6XJEQ1H31S+ap05TDxY5eyULI959FvkOQ1JgVlsoMU3A/NlZREKtK9FzwqogrCCtqQhLXrSiCN1I5bz5WBlBSrMl3zQOFsOITWC3STHs0pHKG8e0qKfiMKtkalIYvPhyqwUpkjKqRV7ihbZgZ2mB7sHaKnDAM4f1MDJ/6pksXrkK61vdmSjkL2K2LYPlQr5nC61BVw0RSSAomu8DAIQ1JBSpYhuMEgpnlcksW0GN5rtgZ9Dfr14m43pmMeJAyqKQhDnXldHaEwZZakjd7500ptvkqNcW7B5U+K/rM+pM1/JgNsNvPck5Uid3jhO7dAA0VfEk8mY1rl32dMtaKxvPEASjCEaX9kJymT6zOnqBeLecLsmQRtqrMEdVvkOYfPkUbjhQpk+YxrwwN7wgp3byQwyeezPPCVOVBQ8Qujz3OnUB6+Out3BVTS8lLfYj9gtzNO4AFlITI6ocsuQVCq8p3CzP25vYaCQttbyYJXYsnjNzWPfsezhBlu3zWvLGm45o0tPuN3Wzi4KDKJdAa95JUPoFbfG7WSTc4RnFDkZyQQqFOUg59lLH++9LWOkV5ZFqHilasPVagFVfqZcQ1sLvZPcvNK/KqCwuIfpDNyGZ7jABGM/T8qcWyh41ukdseSkGMUj4SU9gZN7YpyhvdbnaQ9biX5NC8k5h0Z3r8V7IG+RXgh6QVspAWzbmVel+KvFAw1DeY54hg4DYTV5yHMD6Uzqm+04DjJDVzDsFPDiKAIOzfLkd/uDk0SfcW/7tsohyJtMACbAxyEMorPLJkeVPpBXWS5/rM8Cy1ud2MCbwvVSxPFH3qIc5PQa+zvbi+zjDd5Hpxbv65LcW9rmK0x5SIEgbF5oTGqeFxHFOoBiAhW4KnH0N0q0gaUVU0r+NPlokw9eb27t407ftjTwehq8aQmvmXbSO++rMbkvqRK3EHoJ4t47Mtl9tolHcWVZlqCjKGbcs5KJuGocHmN0aVh2kFaWSe3VBYoRynX842E/5nWNGCPw+LUc/tNAZYpeEAhify/OH9e6dFjMMgbUYvIM6y/LMMAFgIyCgqINTKjXvMoqcWAcElGosiS2JfHjo+aFkuBHhhHSIY6IObp3vt8NK55vKJ5NbqYqTTA8xdINrXWbG+joklphy63LwElxozjytUogBzre40wDfu6S0wxhtA0PzHDLzC1uhM+WFmbPLXgKIzhikeL58/jR6Uf8NB1fkO/oSvdQ0ZZhQTD4MDFTwSuhlOe8MlWTFmKTlvRKBZ5CAxMDHmTExXhp8DJbnTUr7Ap3DsR4VE5S+uPeuVrgTGoHbpRJ/Egnjdf2sSlLe6W65n+lJw4ywtFTqMDUS2j4wQzCwBgDo1M/GIUosN30Ba7q5XETMbcJ5Cl6qdPoj0mctcu1G24ym2g0V5RP+MC9aAYuhGR/RIX4mh/7ahDnWzCFAmwssCFrI/SGSwkpS2f7QlkQdr5kKBESFiTKXiOvUAflihqkOdJE62a/ZuWZ/o0H04YKq4FcvVIkvr7EHxSFA1wlDKWvbaI4lQwNU4/n75gocVu+EYhoGDKgJ+Q+e14VvC2Up1B8wYIm+gXn8ggDBEYKc3uc4w6j/fsSXZh7HWS1KbiOh21kBT4yHvlp+VEf2iRG4GJVKMrsTnZIPxaU9aFvVCpDDjLKzaogzwPqUJprm+qD6lqez00x1N/bhTk77kIoXIcddesKaRbhVMNuoB0NNGKX4kgFf5AAn2aEAO/r2mPG53jJrhfkn1GGXP6JYc6LK6eSWBEcT/eqMEypl8FCmadCC4c3iUoJpkX74Ox0nvCG5WLYIoWVrdIr0T6MrLg/FnlNNsU4T+FFRpFMTv268wOlVsL71Yu91HFhm2AhGLRiHKO4IKWYobDnUPUi6wHlUSpohNXiOE2sQuc92U5W0LEclu8Aw8dhBWOGkg/Iyyw1ACIl+rqkL9aKJx5wAk8f8cWTEczoR2Qeb7DV58bjOU0Dl+3CK/pgd3er4LMc+o+lBqy01xq8hY7kHhUCOK6rqADtw+ADfI0eOwDw2VrUk3L6SRLvCCrBJiR5AxPwx+De8wZ4gCAJ7C1P4mwJfvpXDUZGa+IS/VGio1DMAceD3Zj2anHgrUabdOMePAw8FTiA5dbNKAaHxXNRsG3IfJRhvdj9kQ7yIC7E8CV+zGPzZXqKW4MWn/vH9gcbr0WxHBQQlCj+YaFqugd9whiHLoBMg8qHnhIzEAU53nCAY9dKBfrgxOuTKhyQVB/kd+DZzmawZmEp5XVMlTgBzRWSpQR+cpbF1qagwF/8eLpoDDf3PnwbGppM6XBDDnJkaOXqnHiKNA205JHfCiB+nxff1MJzUhf3cDU+P3jv6Vo5JRX76JShis2wfRj1hhJQUJ098tJzz0hzvBcdw7HKc4tFdnQPRVOvue/Z9UGTynhAIrbzIz3kEmRHUKrhjotQGOZ8VGRAMSOJAFipJDo09iI/svFBKFgI3xi+uBSmlibeww1sT+CBIqMcDANu/UIb4qJQftwyFYWwKmWgoApCyPa34lRCrDJ/+J6NWCXcj3UHULqoqNf1ZhKf4eMUgpSqSoLr8GW5Cny1Ks2jTIEPSyK2pQjkaC0VhQYg0JNd/fLsw49iYRe38qAurlHgyBzp9EqW0Q5VbO0OpOCvEMqPgGhTcVBPErs8gtXYtYJ1AKUM7KOsI46z6R+99wHp4ep/aCtCQaXFm16wQYKeJ+Ix7GDwqUuGpa4SW/DwrXuuaShoDAy7fDaE6QMcucZ7O+XhB+/GfvV2I3OgDtVohxwg9IZ6Bg/+JU8y5DaR2lKM17fmTwr8RNd1A1a3B2jEowDmV/nnSTeSW0taDjiiGAGEU31yzwN/EbAzgkLqFqtKfJBKyYeEnP8q+iirWIjBJA0a0V+Rxlf0qmGoWzzdwkt8gwHCIJCWuLLXYnEDyAdeILPEwSnBRLdsevSXUlPZj/2ehwB92PvYS0nXGcVUKpSSDpwx3NaPL/vgzGTDAvkFyIB6HGKaslgn7GAoCapVWoU62sL8GYd67GA8b3kGjgeMUBuSX82Y1illuBdCSpWAKxaw0TXYA8uzDQtW4kA+rUNkLPpwunNW6TQ0GGGvWS/5YEbwYXQKa92yw+C0b5SG7XVQIjPxuVL6WmE6KAgDinAjWJPW5sYUvIE0ZWdux97iXoySuAOA84/qZoBwpXhSEVVkj0w7Rg4NM7aNGliAl1gIT64iHjj7P4QPkkRovg8D1Lw4aJuiOVBOEi7yXhgje3G2QhgLvDDsgxDktjFiAFzw3rRNfl4bWL4BzlRBlYSRsJ5KgFIgaKfhkBiqDLYXU44OGSO4WQrbA5uUZF/HAYlW4NOiOOCIQbf4IV6D2x6s3CGCeZP/LwlE7NE+/AQSx2BYZix1kWqpj9WosqXXpKQBdO9M9ElTe6sEqmLSD5qF6YVD32Sf5XQBPWm8UlsZVVgsDCAScGGuCEZ9+BSgTK9skKjyn+kf2sqmYdw+NTz8SFujxPthIDR3wCNCWivtWbqp3+UmWib4r6RmRazbQcc2Ea+2f1NsmSkNyBLgT1lHmVVfU69eBbxWHHlh0GdchzVAZP36o3xCu1eEpfnAfshplkjcCD0SWADxNFj57N8GP7YjuF/bACWgrWlechAl4NdQb0Km4wt66PEo0UAOCCSNr2in25vkpQcflhlrT5X6uRvQq8yntZHQBGYpIoz5SLwIGF6nSaikUlITrsR30XFmPKhA0Wg4Y2Dr6bYyMoY3sBM5SSkEzAI3R7gxKV1bTII5K57FzhFzaYKBVstCvUEwcGWIBz1w1hVKAnjR2lWkcisECKrG2XEHwGPxAy7eApAHJ8nD9YWvoSmNlFK5JY/uGVWTnNVYLR/DSCCGM55pJhjF7cCF9/mRKlA1+yxowfEjt6HRdRvXBUo4yhSK27YGhYHesxobWaDIYqLJK/z06zyszmYIQkmR1ww+RGKElTAbfvxEJutAsXhGW8ErQlRHWCpy5gkoGzYujAORGXU4jRFblHgiYZBeAMcFrapD+4QRjnlKGRhlgUSWNLRHD4Q5jYIgjKkAvQpsDOBXMmRII8BID1Ll9NmSCOG75nimB4GCHodKo48aoc9ppgCMU66RGV6AAQocaJxxWjrM/KrEDTqjx4XlsSWSGMFWyIwGnEdBvDTghjzAi43CjfUI2qisq5vQxNKLkgQNNIAG2s1Qmp6P4eCRlX9UD6AT+ao3KVNh7OiUHeWki49TOFlggHzKVMzkaRj3JptBiAa72uMYfSvsLLbHHMJF+gy7WTPVDXrnK/FByTOGL7XdzeITGoOZ+ReyRQ6Xa4xhlyyIGOVEk+GMbHOalJzKPbNcuIQ0ISinMQuoguOzarg5la1Rn7rCRlohYVfEiBwKx3/oP8zns1znFS6lDhwZ0GLmQRUUrPoPglbrZGWsO0/bMDZvAMxMzw6t7kYKWPyjzKCJQOWKF1qsJs1bSJGRngJo/1AmckSp/h3e446KlwaXjnQQN5zgFUB0qaobGAUAfJTNf6UKVoGSB0gnfLQlBfc5jBLylDqbcgW7Ajd8CAg7nGREALU49VrEtPYS/CFYDg8FYEiztSvB33ZHibYPOUD/42kEuLApua6G3iljqKONQxzVsVCsX+CVIYSP9ICsgRS+Gc84eIQcoYG8JIShOZNqgMKWFPM7IRBDLs7tMp1TJl/prfOMMjkHnE7joCdPEqcECAr0Yi6EY7k4plhC9fjsdJs0wrmWxUTodFZF2rxoodEFD4uQYyMRGCPxfWx8N3gVdzrUoB/saqzzZLQpiQeCQol5dXMPCIEzHF/kJvQ1/LglEH2+J12P9QrbcJQ2aFri4CvxEhPUFleQ4cAP5G0VRllcy5yW6+3VlsZXeeI8r7UHaBL8oXTSsjPM52XOrGwlfrAusqGgHbRaCml13znwszCnQAoRIwBHVUPB6l2K2eLtlTnclwWz53lhOraB3xTGYozqxtVxPVr88hQwrCiWrW3AGwpsT8G2bVTlFsCl0LSNpxhDB6CiPI6rstuwoCwisQMfL/xljfVzYR8FAF6HTxFQjSoJjbkIWQD87Zo9hN2whYkrgEvBdsmFKDJddjd1y+133KYfreExwEetmydTZhwiv8enoLkOY/aceXLI4iqZt2it3PqX+6GoWnAAywJZvGCOzJsKDaQhIK/uD0nzzm2yfu0CjUkFa+TOux+U045f4aTJXNLhKdLS1o96/yIdOBFz2bIVsurgRTKj3pTH9ktF58od+FDNzp3b8enehZLo2aOHc93214fkPecdbQpz2pYkIe86pDG8lqlu+HeWZ/RK6gfk2c2v4KTFp+TcM4/NWx6cZnLbXx+Rd593ZM77gGzdG5SN996t31FYvfoweCgOyMK59Zouo1Sh4mGMcBDw8tZ90t2yRY48fGVOWaN/zNQ3+rL8ElxLtqAKL0ijUihZd+uJq/BtF7CCAqxrmbkgJKN8oUKJina0FVGRm66cgcg+27ItfpkUJbsD/LaWkpXplFj6crMhZPlU2APqcdokIxqz8/GpmHYbddMOrDZPTDb02hqlrtiyU57aSxpl4eaIXO+9uOHe875QvUO2ixYZkb0t/Tii9Tfy1jefJA31NXKgrVOm4cMdzzz/shy2cpYsXzJXOrEAtabGzL8279slbz4dHymCcu/C+pwHn26To9eYT2tuxiLVxqkzZG9Tm8ycRgWVxjcoOgeCGKqV+x56Wlr2bZU3nng46q3FufVd0oJPpt7/ym45Zt1iHMU4X37+Pz+XNQfNkhPevAHrTXAOfHyKlsUz/NMRnN5Jjo03az1qfGKOPwDjgCP2QOKAqVdH+rBOw/g6ID0JiRa8dwyPUA3sI3wymF8NTLAcBI76OdSmVyEIb2SyDcatOQ56+ZLZsnSes9IzDNe69TwwjRO4yC4DWxNijczp7OqUBTMicuiaxVh/goWXL3RDiaOMUAUMc7oV0MsIGyYC6VyhERarbMSKOoz+E1hTgNF7INyInxnRO9WN6OIr8RGRbehM9Aib5rZ/0YGRTUeS+obx5p29DF6qk3bwRG6RhZPZcuy1cMqRvxlt2chPYmnIV5aNs1ebdiyuJarDxWcsYBxY5mDVWZ0xMFexMSWieHFcUwAADCFJREFUSbHVaboxqNN0yGFBMarEWt8geAzWaINUrNn4J1wvf73rNjnnjGNk1kwoDITZFbwm8KW9Spz6tgBrPbDeo9HsiFBZBE9Qba1R6Fx+1dIh0tR8AEdiT9EDZhprA/Liq+0yYyoVkw3ZOMQDtbL91c3yzne+Rx54+EmMxHfiSOhZGO1XS2cfRvGArb2zT2LhhBx9xCF4ziBK9btw8Qr53e+vRZ1TZcacJbJ8ruCbG5XS2l0jN9/0J5kzbwFO2pwpq5bAnR+IylMvtsuLz90qNdVVMmfBwTK7oRNfGGuQl7bslQcffgwfwlmI72dMkzXLKrBMJyzPb0sg/UbUlJKFS9dIXXifLITXoa2nQp59/Fk56bh1csvt9+lq+2UHHYoZyA459GCe7JnGV+TwyeHfXw/YGmXG7CVy0HxMh1TEkCYIQ6gWx4c3SHV4qjx/3V/kpKNmYydISH7/pz/IzBnTAccymdXYJVMbp+Kk0imyaetL8ur1t8iSg4+AK38X8GyUl9qmSQ2+8lgPJd8Fw+e6a6+T9773vZbQRV19JV4UmfIlMoxMfvS6usz4zfxNB3qxkAUulRi+PKa7hLm4CPs4ydWYtPS6OvPV4I3LsL03djj3Tgk654Z8Oq84+lKHA0HxaUFbnRcfKke2MBmYejj4FUo7VB0Da82NYcmFSs9NOzmeh6LJJMN2KHRK2Si5dZWCVCyD5QamSGvLXuxCWYT1FtDGnjCjul+e3NQtBy1bIo3V7VIZ4Y4FLuzCXHjKSYuRbV1dtWza/JCceMxaHFeL71NEmyQwdx4U5FZZCqWY5jy2Te+Uv3nzs7Lh8EWydcceadr1tJx7zmlyz0M7sVpe8F2LWbJr97OShBGxBp4ASWMk76UBlDINgLPesFRH8Ftb6mX3nmdk6UGr5YGHHpSTjz9Y5s6ZCUWckqeeeQrn4R+GT+S+LEesnSKL8DGYPR118vyzj2EF+EpZNDsly96Grx9i7n7TlhS8AU1SVSP4kuU+md7QAwNipRzorZU7/ny7LJxfh6OSq6WvBzsGANMbjpmNDxatwM6ORvnjNZtkzXKM3EOVsnULYVuksL3a3ICynka9M2EUTZWdOwJy32PbseByn6xZMQ0bWTqwbqdDPvD2DbBTIrKjpVpefukJmX5kBT7/G5emvc/Je956IjRASn5//Ssy7009suSgg6Slc4/MkR58bW+7fqzL02xF3fpKvCgyFUpkuDFjWDo90jIpFFE/mLRl/z5JtW6CXsILrGoKQpHS4U5Vzxyl6MeFIPTjfQr4FHh9UKBiagfmZkV2PPeIVMbMaNuL+aJIUh658wGZv/pMCR3YKPNXHC+dUPrbn31Ik4Uq6qUrDaWy7XnZXt+Pg4JqZNfmnVI/db/sbKvFgrznpLu1yU1vy96+u05mV+6RDlTZEGyTpm1bkK5ddkMpdcaS0rX1CalfPk9atr4gOwJ0SWdCtGG5tDftlM4dHfhBFk5/g2x5+hEsdIOrGd7Mhx/ZIg/LFnxGulv6mp/D9tKY7MM8fX9tWna070T642Xni8/JnmkYGk05VB5//Ensqk3KrAWr5NWnHpbG6XOlZU9c5lbslh3PdEt4+tGyb/sW2bmpRuJTjpN9MAiady6QA4kZsvm5x5Ae36JvOyBbn3xYqmesks7mXdK5vQs/A9srTz0u4Y4ZckBWy77n75Dli2Zgf3+9hOpWylbAPXXZqfLgI09IF7YTcsS964VNsr0uhe23S7BdrkNefOkpidXNBgECsglfPqyuqZZt2w7ImkPT8vzm5+Wcc87JEKfIO1+JF0mo4pKB6zwqOYDNgDOnL4fxWS8VGPnyYxI8zIDuJFX8Ge1fXPF+Kp8CPgV8ChSgQBz7mw496g1QeM9LVS3mjHMC1fp6rNEK1s+Ue56Gqxij2UC0TgK1i/AmILGGRfLIrRvl+MM2YBE5RqIRzNvWLJBodZ3Mb5gvO5swao3WIP28rJLnxmZiqhkfBZk1V1qRr6m/WqK12A9fO1Vuue5aefvZR0sQX6psTc1AXvjKPTJSqmZgBXetAwNeYfQbqJ6L0yyrpLWtQ45Z3ej5Gtoi7LOfinnkJgnWYg4dbu1ABPBUzpTI1DVy292PyeJZIYyy50tzH+amaxbiNwvp90qwbgHqIL74/HUMZdTiHeajg5UzpGLOsfLrb3xd3nvesTJ97iJ58ZVdEqiDO71yOg5OysAWUNjmoG7g0I2vLc5cKrOXQDnH6mTL/rDsgFdg54v78M33Flm/ZoEkqqZIsGqWhKsXSE2iEVPyM6WyYalU1s6XpqYXpPaItcCtEmc5zMEK/RROwONaBbgOhhl8JT5Mgg2eHCNtLsbCXi/dKgJ3zcJ5q+E+wlg7ZbckmBKwG0T3FA5env/Wp4BPAZ8CxVMgvmu/tLVMkSnLFmCHaUS4AKu+oU66sZgtpqPzoNx//wOyaN0bpWbWIbJqfbdMXXGofub0sceewHGqkFlHvU0rjO2+R6atPFi//MjPcsZDO6Rif5fMWHN2FkCV7T2yZ0+jLDhoqbx6972yvzkuxx5/otx+253ydx+8TGbO4chTZNHqN0gY36snPBzQ9ODkt5qaBolN2Soz175Z0+zfh+1my0+U+oWrZN0GKH0cjjMNX3Dr6cU0JE4djMUqJfoQpgzgTaiqqpK2A11Ie6TULTxClqzEQrN1q6UHR88mtmyTWUjTgLno6Ct/AR4rAMcc6cbpf7Vz1yD/m/B511apX3y0RBrmyklnvFMWHXGMNGM9QKhqOnA8B/PeOJWw8dUMbHtbpfGgk2TGISuld8tuqZ8xT6bOnSNdnd3ywK1XyocvvUhe3rxVVh1+NPJCqW/fKY2LjpWZBx8rnS9tl2Urz5K5i1dKW3uXdHWnZPmK05GuUqrrDsiTTz4nKw8+WGkw3D++Eh8uxYpJr6vaoKXVT85vn3OvoFkFybG6HhKAd4OtEi6mGj+NTwGfAj4FvBSYOWeBNLU8Kz/7+W+hsDqlqrpGPvLRS+X6G6+R/fv345z4bll3+HrZcMIG6YPb+S4cy8tfDbaiHX3MBvnARR9x99hs2bZD1qw/As8YgECc9eNcg934rrk+eyqtrquU/q27ZOf2Ftmw4SR4GQPSh88Jr1u/Ad9yn28OBUL6g1atxsr5P0rTvn1qNJx0yhtk5SF1upAumcbIH2HT5oexmn468lTI/CVL5dqrr4YyxLwzzv7/4EUXYqEa5pp37YbsrNI0W7a9gE8WVwMmLDaLVcgP/uPH0jBliqxZeyjkL47SxQmZO3btldWHrdf0ezG1GY6YvDswV15ZOQVlRXB6W5t897s/AMzrMTKOYckSvnDQh1P2mts0H2F75rnnZTaMEML29KbNsumZZxgNl3iNnHPeW1FunUydPUf+52e/RmxATjj5JAlX1OKInArZ8uo2Wbp4ifznj/9HD97653/+NLwIPDMioJ+Zvebaq+WiCy9EPs7FquLAtbjgH7taHJ3ypCKx+fMG57Q0J4qnKJqAHsCGoQbnFSf96ENRi7eYxw8+BXwK+BQobwpsx8hz48aN0tHegVXdC+SUU04WftfdD9magira1RyYZm0DvW6+6SZ53/u4Kt3RFSRakbrcV+Ik1ojC0Epcv6WIsvVLPKzDV+IjorSfyaeATwGfAq89CgTlyaeekRuuv0EuhpdhDlzzvhIf11YuQolbq4oH6rrB2mHQ6HoqmfvCv/Ep4FPAp4BPgdcRBbqwViGMKYJYBaYTVDXwj6MvnMtQ5PBH4kNRqOB7X4kXJI3/wqeATwGfAj4FhqaAPa+DO5WotPUcD1+JD004P4VPAZ8CPgV8CvgUeA1QgLPofvAp4FPAp4BPAZ8CPgUmIQV8JT4JG80H2aeATwGfAj4FfAqQAr4S9/nAp4BPAZ8CPgV8CkxSCvhKfJI2nA+2TwGfAj4FfAr4FPCVuM8DPgV8CvgU8CngU2CSUsBX4pO04XywfQr4FPAp4FPAp4CvxH0e8CngU8CngE8BnwKTlAK+Ep+kDeeD7VPAp4BPAZ8CPgV8Je7zgE8BnwI+BXwK+BSYpBTwlfgkbTgfbJ8CPgV8CvgU8CngK3GfB3wK+BTwKeBTwKfAJKWAr8QnacP5YPsU8CngU8CngE8BX4n7POBTwKeATwGfAj4FJikF/j9T3M7/wxRRogAAAABJRU5ErkJggg==;" vertex="1" parent="WIyWlLk6GJQsqaUBKTNV-1">
          <mxGeometry x="181.5" y="20" width="497" height="128" as="geometry" />
        </mxCell>
        <mxCell id="gly3M6yBo6mkt92Qv2Da-19" value="" style="edgeStyle=orthogonalEdgeStyle;rounded=0;orthogonalLoop=1;jettySize=auto;html=1;" edge="1" parent="WIyWlLk6GJQsqaUBKTNV-1" source="gly3M6yBo6mkt92Qv2Da-3">
          <mxGeometry relative="1" as="geometry">
            <mxPoint x="262" y="290" as="targetPoint" />
          </mxGeometry>
        </mxCell>
        <mxCell id="gly3M6yBo6mkt92Qv2Da-3" value="" style="whiteSpace=wrap;html=1;aspect=fixed;fillColor=#d5e8d4;strokeColor=#82b366;" vertex="1" parent="WIyWlLk6GJQsqaUBKTNV-1">
          <mxGeometry x="252" y="310" width="20" height="20" as="geometry" />
        </mxCell>
        <mxCell id="gly3M6yBo6mkt92Qv2Da-5" value="" style="whiteSpace=wrap;html=1;aspect=fixed;fillColor=#d5e8d4;strokeColor=#82b366;" vertex="1" parent="WIyWlLk6GJQsqaUBKTNV-1">
          <mxGeometry x="300" y="310" width="20" height="20" as="geometry" />
        </mxCell>
        <mxCell id="gly3M6yBo6mkt92Qv2Da-11" value="" style="ellipse;whiteSpace=wrap;html=1;aspect=fixed;fillColor=#dae8fc;strokeColor=#6c8ebf;" vertex="1" parent="WIyWlLk6GJQsqaUBKTNV-1">
          <mxGeometry x="252" y="270" width="20" height="20" as="geometry" />
        </mxCell>
        <mxCell id="gly3M6yBo6mkt92Qv2Da-12" value="" style="ellipse;whiteSpace=wrap;html=1;aspect=fixed;fillColor=#dae8fc;strokeColor=#6c8ebf;" vertex="1" parent="WIyWlLk6GJQsqaUBKTNV-1">
          <mxGeometry x="300" y="270" width="20" height="20" as="geometry" />
        </mxCell>
        <mxCell id="gly3M6yBo6mkt92Qv2Da-21" value="" style="edgeStyle=orthogonalEdgeStyle;rounded=0;orthogonalLoop=1;jettySize=auto;html=1;" edge="1" parent="WIyWlLk6GJQsqaUBKTNV-1">
          <mxGeometry relative="1" as="geometry">
            <mxPoint x="310" y="310" as="sourcePoint" />
            <mxPoint x="310" y="290" as="targetPoint" />
          </mxGeometry>
        </mxCell>
        <mxCell id="gly3M6yBo6mkt92Qv2Da-30" value="" style="rounded=0;orthogonalLoop=1;jettySize=auto;html=1;exitX=0.029;exitY=0.702;exitDx=0;exitDy=0;exitPerimeter=0;entryX=1.001;entryY=0.695;entryDx=0;entryDy=0;entryPerimeter=0;" edge="1" parent="WIyWlLk6GJQsqaUBKTNV-1">
          <mxGeometry relative="1" as="geometry">
            <mxPoint x="349.58000000000004" y="284.03999999999996" as="sourcePoint" />
            <mxPoint x="320.02" y="283.9" as="targetPoint" />
          </mxGeometry>
        </mxCell>
        <mxCell id="gly3M6yBo6mkt92Qv2Da-31" value="" style="rounded=0;orthogonalLoop=1;jettySize=auto;html=1;exitX=0.951;exitY=0.286;exitDx=0;exitDy=0;exitPerimeter=0;endArrow=classic;endFill=1;entryX=0.021;entryY=0.297;entryDx=0;entryDy=0;entryPerimeter=0;" edge="1" parent="WIyWlLk6GJQsqaUBKTNV-1" target="gly3M6yBo6mkt92Qv2Da-33">
          <mxGeometry relative="1" as="geometry">
            <mxPoint x="319.02" y="275.72" as="sourcePoint" />
            <mxPoint x="348" y="276" as="targetPoint" />
          </mxGeometry>
        </mxCell>
        <mxCell id="gly3M6yBo6mkt92Qv2Da-32" value="" style="whiteSpace=wrap;html=1;aspect=fixed;fillColor=#d5e8d4;strokeColor=#82b366;" vertex="1" parent="WIyWlLk6GJQsqaUBKTNV-1">
          <mxGeometry x="348" y="310" width="20" height="20" as="geometry" />
        </mxCell>
        <mxCell id="gly3M6yBo6mkt92Qv2Da-33" value="" style="ellipse;whiteSpace=wrap;html=1;aspect=fixed;fillColor=#dae8fc;strokeColor=#6c8ebf;" vertex="1" parent="WIyWlLk6GJQsqaUBKTNV-1">
          <mxGeometry x="348" y="270" width="20" height="20" as="geometry" />
        </mxCell>
        <mxCell id="gly3M6yBo6mkt92Qv2Da-34" value="" style="edgeStyle=orthogonalEdgeStyle;rounded=0;orthogonalLoop=1;jettySize=auto;html=1;" edge="1" parent="WIyWlLk6GJQsqaUBKTNV-1">
          <mxGeometry relative="1" as="geometry">
            <mxPoint x="358" y="310" as="sourcePoint" />
            <mxPoint x="358" y="290" as="targetPoint" />
          </mxGeometry>
        </mxCell>
        <mxCell id="gly3M6yBo6mkt92Qv2Da-35" value="" style="rounded=0;orthogonalLoop=1;jettySize=auto;html=1;exitX=0.029;exitY=0.702;exitDx=0;exitDy=0;exitPerimeter=0;entryX=1.001;entryY=0.695;entryDx=0;entryDy=0;entryPerimeter=0;" edge="1" parent="WIyWlLk6GJQsqaUBKTNV-1">
          <mxGeometry relative="1" as="geometry">
            <mxPoint x="397.58000000000004" y="284.03999999999996" as="sourcePoint" />
            <mxPoint x="368.02" y="283.9" as="targetPoint" />
          </mxGeometry>
        </mxCell>
        <mxCell id="gly3M6yBo6mkt92Qv2Da-36" value="" style="rounded=0;orthogonalLoop=1;jettySize=auto;html=1;exitX=0.951;exitY=0.286;exitDx=0;exitDy=0;exitPerimeter=0;endArrow=classic;endFill=1;entryX=0.021;entryY=0.297;entryDx=0;entryDy=0;entryPerimeter=0;" edge="1" parent="WIyWlLk6GJQsqaUBKTNV-1" target="gly3M6yBo6mkt92Qv2Da-38">
          <mxGeometry relative="1" as="geometry">
            <mxPoint x="367.02" y="275.72" as="sourcePoint" />
            <mxPoint x="396" y="276" as="targetPoint" />
          </mxGeometry>
        </mxCell>
        <mxCell id="gly3M6yBo6mkt92Qv2Da-37" value="" style="whiteSpace=wrap;html=1;aspect=fixed;fillColor=#d5e8d4;strokeColor=#82b366;" vertex="1" parent="WIyWlLk6GJQsqaUBKTNV-1">
          <mxGeometry x="396" y="310" width="20" height="20" as="geometry" />
        </mxCell>
        <mxCell id="gly3M6yBo6mkt92Qv2Da-38" value="" style="ellipse;whiteSpace=wrap;html=1;aspect=fixed;fillColor=#dae8fc;strokeColor=#6c8ebf;" vertex="1" parent="WIyWlLk6GJQsqaUBKTNV-1">
          <mxGeometry x="396" y="270" width="20" height="20" as="geometry" />
        </mxCell>
        <mxCell id="gly3M6yBo6mkt92Qv2Da-39" value="" style="edgeStyle=orthogonalEdgeStyle;rounded=0;orthogonalLoop=1;jettySize=auto;html=1;" edge="1" parent="WIyWlLk6GJQsqaUBKTNV-1">
          <mxGeometry relative="1" as="geometry">
            <mxPoint x="406" y="310" as="sourcePoint" />
            <mxPoint x="406" y="290" as="targetPoint" />
          </mxGeometry>
        </mxCell>
        <mxCell id="gly3M6yBo6mkt92Qv2Da-40" value="" style="rounded=0;orthogonalLoop=1;jettySize=auto;html=1;exitX=0.029;exitY=0.702;exitDx=0;exitDy=0;exitPerimeter=0;entryX=1.001;entryY=0.695;entryDx=0;entryDy=0;entryPerimeter=0;" edge="1" parent="WIyWlLk6GJQsqaUBKTNV-1">
          <mxGeometry relative="1" as="geometry">
            <mxPoint x="445.58000000000004" y="284.03999999999996" as="sourcePoint" />
            <mxPoint x="416.02" y="283.9" as="targetPoint" />
          </mxGeometry>
        </mxCell>
        <mxCell id="gly3M6yBo6mkt92Qv2Da-41" value="" style="rounded=0;orthogonalLoop=1;jettySize=auto;html=1;exitX=0.951;exitY=0.286;exitDx=0;exitDy=0;exitPerimeter=0;endArrow=classic;endFill=1;entryX=0.021;entryY=0.297;entryDx=0;entryDy=0;entryPerimeter=0;" edge="1" parent="WIyWlLk6GJQsqaUBKTNV-1" target="gly3M6yBo6mkt92Qv2Da-43">
          <mxGeometry relative="1" as="geometry">
            <mxPoint x="415.02" y="275.72" as="sourcePoint" />
            <mxPoint x="444" y="276" as="targetPoint" />
          </mxGeometry>
        </mxCell>
        <mxCell id="gly3M6yBo6mkt92Qv2Da-67" value="" style="edgeStyle=none;rounded=0;orthogonalLoop=1;jettySize=auto;html=1;endArrow=classic;endFill=1;entryX=0;entryY=0.5;entryDx=0;entryDy=0;" edge="1" parent="WIyWlLk6GJQsqaUBKTNV-1" source="gly3M6yBo6mkt92Qv2Da-42" target="gly3M6yBo6mkt92Qv2Da-47">
          <mxGeometry relative="1" as="geometry" />
        </mxCell>
        <mxCell id="gly3M6yBo6mkt92Qv2Da-42" value="" style="whiteSpace=wrap;html=1;aspect=fixed;fillColor=#d5e8d4;strokeColor=#82b366;" vertex="1" parent="WIyWlLk6GJQsqaUBKTNV-1">
          <mxGeometry x="444" y="310" width="20" height="20" as="geometry" />
        </mxCell>
        <mxCell id="gly3M6yBo6mkt92Qv2Da-43" value="" style="ellipse;whiteSpace=wrap;html=1;aspect=fixed;fillColor=#dae8fc;strokeColor=#6c8ebf;" vertex="1" parent="WIyWlLk6GJQsqaUBKTNV-1">
          <mxGeometry x="444" y="270" width="20" height="20" as="geometry" />
        </mxCell>
        <mxCell id="gly3M6yBo6mkt92Qv2Da-44" value="" style="edgeStyle=orthogonalEdgeStyle;rounded=0;orthogonalLoop=1;jettySize=auto;html=1;" edge="1" parent="WIyWlLk6GJQsqaUBKTNV-1">
          <mxGeometry relative="1" as="geometry">
            <mxPoint x="454" y="310" as="sourcePoint" />
            <mxPoint x="454" y="290" as="targetPoint" />
          </mxGeometry>
        </mxCell>
        <mxCell id="gly3M6yBo6mkt92Qv2Da-45" value="" style="rounded=0;orthogonalLoop=1;jettySize=auto;html=1;exitX=0.029;exitY=0.702;exitDx=0;exitDy=0;exitPerimeter=0;entryX=1.001;entryY=0.695;entryDx=0;entryDy=0;entryPerimeter=0;" edge="1" parent="WIyWlLk6GJQsqaUBKTNV-1">
          <mxGeometry relative="1" as="geometry">
            <mxPoint x="493.58000000000004" y="284.03999999999996" as="sourcePoint" />
            <mxPoint x="464.02" y="283.9" as="targetPoint" />
          </mxGeometry>
        </mxCell>
        <mxCell id="gly3M6yBo6mkt92Qv2Da-46" value="" style="rounded=0;orthogonalLoop=1;jettySize=auto;html=1;exitX=0.951;exitY=0.286;exitDx=0;exitDy=0;exitPerimeter=0;endArrow=classic;endFill=1;entryX=0.021;entryY=0.297;entryDx=0;entryDy=0;entryPerimeter=0;" edge="1" parent="WIyWlLk6GJQsqaUBKTNV-1" target="gly3M6yBo6mkt92Qv2Da-48">
          <mxGeometry relative="1" as="geometry">
            <mxPoint x="463.02" y="275.72" as="sourcePoint" />
            <mxPoint x="492" y="276" as="targetPoint" />
          </mxGeometry>
        </mxCell>
        <mxCell id="gly3M6yBo6mkt92Qv2Da-69" value="" style="edgeStyle=none;rounded=0;orthogonalLoop=1;jettySize=auto;html=1;endArrow=classic;endFill=1;entryX=0;entryY=0.5;entryDx=0;entryDy=0;" edge="1" parent="WIyWlLk6GJQsqaUBKTNV-1" source="gly3M6yBo6mkt92Qv2Da-47" target="gly3M6yBo6mkt92Qv2Da-52">
          <mxGeometry relative="1" as="geometry" />
        </mxCell>
        <mxCell id="gly3M6yBo6mkt92Qv2Da-47" value="" style="whiteSpace=wrap;html=1;aspect=fixed;fillColor=#d5e8d4;strokeColor=#82b366;" vertex="1" parent="WIyWlLk6GJQsqaUBKTNV-1">
          <mxGeometry x="492" y="310" width="20" height="20" as="geometry" />
        </mxCell>
        <mxCell id="gly3M6yBo6mkt92Qv2Da-48" value="" style="ellipse;whiteSpace=wrap;html=1;aspect=fixed;fillColor=#dae8fc;strokeColor=#6c8ebf;" vertex="1" parent="WIyWlLk6GJQsqaUBKTNV-1">
          <mxGeometry x="492" y="270" width="20" height="20" as="geometry" />
        </mxCell>
        <mxCell id="gly3M6yBo6mkt92Qv2Da-49" value="" style="edgeStyle=orthogonalEdgeStyle;rounded=0;orthogonalLoop=1;jettySize=auto;html=1;" edge="1" parent="WIyWlLk6GJQsqaUBKTNV-1">
          <mxGeometry relative="1" as="geometry">
            <mxPoint x="502" y="310" as="sourcePoint" />
            <mxPoint x="502" y="290" as="targetPoint" />
          </mxGeometry>
        </mxCell>
        <mxCell id="gly3M6yBo6mkt92Qv2Da-50" value="" style="rounded=0;orthogonalLoop=1;jettySize=auto;html=1;exitX=0.029;exitY=0.702;exitDx=0;exitDy=0;exitPerimeter=0;entryX=1.001;entryY=0.695;entryDx=0;entryDy=0;entryPerimeter=0;" edge="1" parent="WIyWlLk6GJQsqaUBKTNV-1">
          <mxGeometry relative="1" as="geometry">
            <mxPoint x="541.58" y="284.03999999999996" as="sourcePoint" />
            <mxPoint x="512.02" y="283.9" as="targetPoint" />
          </mxGeometry>
        </mxCell>
        <mxCell id="gly3M6yBo6mkt92Qv2Da-51" value="" style="rounded=0;orthogonalLoop=1;jettySize=auto;html=1;exitX=0.951;exitY=0.286;exitDx=0;exitDy=0;exitPerimeter=0;endArrow=classic;endFill=1;entryX=0.021;entryY=0.297;entryDx=0;entryDy=0;entryPerimeter=0;" edge="1" parent="WIyWlLk6GJQsqaUBKTNV-1" target="gly3M6yBo6mkt92Qv2Da-53">
          <mxGeometry relative="1" as="geometry">
            <mxPoint x="511.02" y="275.72" as="sourcePoint" />
            <mxPoint x="540" y="276" as="targetPoint" />
          </mxGeometry>
        </mxCell>
        <mxCell id="gly3M6yBo6mkt92Qv2Da-71" value="" style="edgeStyle=none;rounded=0;orthogonalLoop=1;jettySize=auto;html=1;endArrow=classic;endFill=1;entryX=0;entryY=0.5;entryDx=0;entryDy=0;" edge="1" parent="WIyWlLk6GJQsqaUBKTNV-1" source="gly3M6yBo6mkt92Qv2Da-52" target="gly3M6yBo6mkt92Qv2Da-57">
          <mxGeometry relative="1" as="geometry" />
        </mxCell>
        <mxCell id="gly3M6yBo6mkt92Qv2Da-52" value="" style="whiteSpace=wrap;html=1;aspect=fixed;fillColor=#d5e8d4;strokeColor=#82b366;" vertex="1" parent="WIyWlLk6GJQsqaUBKTNV-1">
          <mxGeometry x="540" y="310" width="20" height="20" as="geometry" />
        </mxCell>
        <mxCell id="gly3M6yBo6mkt92Qv2Da-53" value="" style="ellipse;whiteSpace=wrap;html=1;aspect=fixed;fillColor=#dae8fc;strokeColor=#6c8ebf;" vertex="1" parent="WIyWlLk6GJQsqaUBKTNV-1">
          <mxGeometry x="540" y="270" width="20" height="20" as="geometry" />
        </mxCell>
        <mxCell id="gly3M6yBo6mkt92Qv2Da-54" value="" style="edgeStyle=orthogonalEdgeStyle;rounded=0;orthogonalLoop=1;jettySize=auto;html=1;" edge="1" parent="WIyWlLk6GJQsqaUBKTNV-1">
          <mxGeometry relative="1" as="geometry">
            <mxPoint x="550" y="310" as="sourcePoint" />
            <mxPoint x="550" y="290" as="targetPoint" />
          </mxGeometry>
        </mxCell>
        <mxCell id="gly3M6yBo6mkt92Qv2Da-55" value="" style="rounded=0;orthogonalLoop=1;jettySize=auto;html=1;exitX=0.029;exitY=0.702;exitDx=0;exitDy=0;exitPerimeter=0;entryX=1.001;entryY=0.695;entryDx=0;entryDy=0;entryPerimeter=0;" edge="1" parent="WIyWlLk6GJQsqaUBKTNV-1">
          <mxGeometry relative="1" as="geometry">
            <mxPoint x="589.58" y="284.03999999999996" as="sourcePoint" />
            <mxPoint x="560.02" y="283.9" as="targetPoint" />
          </mxGeometry>
        </mxCell>
        <mxCell id="gly3M6yBo6mkt92Qv2Da-56" value="" style="rounded=0;orthogonalLoop=1;jettySize=auto;html=1;exitX=0.951;exitY=0.286;exitDx=0;exitDy=0;exitPerimeter=0;endArrow=classic;endFill=1;entryX=0.021;entryY=0.297;entryDx=0;entryDy=0;entryPerimeter=0;" edge="1" parent="WIyWlLk6GJQsqaUBKTNV-1" target="gly3M6yBo6mkt92Qv2Da-58">
          <mxGeometry relative="1" as="geometry">
            <mxPoint x="559.02" y="275.72" as="sourcePoint" />
            <mxPoint x="588" y="276" as="targetPoint" />
          </mxGeometry>
        </mxCell>
        <mxCell id="gly3M6yBo6mkt92Qv2Da-57" value="" style="whiteSpace=wrap;html=1;aspect=fixed;fillColor=#d5e8d4;strokeColor=#82b366;" vertex="1" parent="WIyWlLk6GJQsqaUBKTNV-1">
          <mxGeometry x="588" y="310" width="20" height="20" as="geometry" />
        </mxCell>
        <mxCell id="gly3M6yBo6mkt92Qv2Da-58" value="" style="ellipse;whiteSpace=wrap;html=1;aspect=fixed;fillColor=#dae8fc;strokeColor=#6c8ebf;" vertex="1" parent="WIyWlLk6GJQsqaUBKTNV-1">
          <mxGeometry x="588" y="270" width="20" height="20" as="geometry" />
        </mxCell>
        <mxCell id="gly3M6yBo6mkt92Qv2Da-59" value="" style="edgeStyle=orthogonalEdgeStyle;rounded=0;orthogonalLoop=1;jettySize=auto;html=1;" edge="1" parent="WIyWlLk6GJQsqaUBKTNV-1">
          <mxGeometry relative="1" as="geometry">
            <mxPoint x="598" y="310" as="sourcePoint" />
            <mxPoint x="598" y="290" as="targetPoint" />
          </mxGeometry>
        </mxCell>
        <mxCell id="gly3M6yBo6mkt92Qv2Da-60" value="" style="rounded=0;orthogonalLoop=1;jettySize=auto;html=1;exitX=0.951;exitY=0.286;exitDx=0;exitDy=0;exitPerimeter=0;endArrow=classic;endFill=1;entryX=0.021;entryY=0.297;entryDx=0;entryDy=0;entryPerimeter=0;" edge="1" parent="WIyWlLk6GJQsqaUBKTNV-1">
          <mxGeometry relative="1" as="geometry">
            <mxPoint x="270.02" y="318.72000000000014" as="sourcePoint" />
            <mxPoint x="299.41999999999985" y="318.94000000000005" as="targetPoint" />
          </mxGeometry>
        </mxCell>
      </root>
    </mxGraphModel>
  </diagram>
</mxfile>
